<svg width="40" height="40" viewBox="0 0 40 40" fill="none" xmlns="http://www.w3.org/2000/svg">
<rect width="40" height="40" rx="10" fill="#1376F8"/>
<path fill-rule="evenodd" clip-rule="evenodd" d="M14.25 11.5C11.5 11.5 11.5 11.708 11.5 14.25V14.275C11.5 15.382 11.5 16.182 11.771 16.52C12.036 16.848 12.823 17 14.25 17C15.677 17 16.464 16.847 16.729 16.519C17 16.182 17 15.382 17 14.274C17 11.708 17 11.5 14.25 11.5ZM14.25 18.5C12.564 18.5 11.299 18.323 10.604 17.46C10 16.711 10 15.689 10 14.275L10.75 14.25H10C10 11.38 10.181 10 14.25 10C18.319 10 18.5 11.38 18.5 14.25C18.5 15.688 18.5 16.711 17.896 17.46C17.201 18.323 15.936 18.5 14.25 18.5Z" fill="white"/>
<path fill-rule="evenodd" clip-rule="evenodd" d="M25.25 11.5C22.5 11.5 22.5 11.708 22.5 14.25V14.275C22.5 15.382 22.5 16.182 22.771 16.52C23.036 16.848 23.823 17 25.25 17C26.677 17 27.464 16.847 27.729 16.519C28 16.182 28 15.382 28 14.274C28 11.708 28 11.5 25.25 11.5ZM25.25 18.5C23.564 18.5 22.299 18.323 21.604 17.46C21 16.711 21 15.689 21 14.275L21.75 14.25H21C21 11.38 21.181 10 25.25 10C29.319 10 29.5 11.38 29.5 14.25C29.5 15.688 29.5 16.711 28.896 17.46C28.201 18.323 26.936 18.5 25.25 18.5Z" fill="white"/>
<path fill-rule="evenodd" clip-rule="evenodd" d="M14.25 22.5C11.5 22.5 11.5 22.708 11.5 25.25V25.275C11.5 26.382 11.5 27.182 11.771 27.52C12.036 27.848 12.823 28 14.25 28C15.677 28 16.464 27.847 16.729 27.519C17 27.182 17 26.382 17 25.274C17 22.708 17 22.5 14.25 22.5ZM14.25 29.5C12.564 29.5 11.299 29.323 10.604 28.46C10 27.711 10 26.689 10 25.275L10.75 25.25H10C10 22.38 10.181 21 14.25 21C18.319 21 18.5 22.38 18.5 25.25C18.5 26.688 18.5 27.711 17.896 28.46C17.201 29.323 15.936 29.5 14.25 29.5Z" fill="white"/>
<path fill-rule="evenodd" clip-rule="evenodd" d="M25.25 22.5C22.5 22.5 22.5 22.708 22.5 25.25V25.275C22.5 26.382 22.5 27.182 22.771 27.52C23.036 27.848 23.823 28 25.25 28C26.677 28 27.464 27.847 27.729 27.519C28 27.182 28 26.382 28 25.274C28 22.708 28 22.5 25.25 22.5ZM25.25 29.5C23.564 29.5 22.299 29.323 21.604 28.46C21 27.711 21 26.689 21 25.275L21.75 25.25H21C21 22.38 21.181 21 25.25 21C29.319 21 29.5 22.38 29.5 25.25C29.5 26.688 29.5 27.711 28.896 28.46C28.201 29.323 26.936 29.5 25.25 29.5Z" fill="white"/>
</svg>
