<svg width="24" height="25" viewBox="0 0 24 25" fill="none" xmlns="http://www.w3.org/2000/svg">
<path fill-rule="evenodd" clip-rule="evenodd" d="M3.28872 4.12398L3.36127 4.04817C5.28869 2.12057 6.54385 1.60964 7.88307 2.37975C8.2683 2.60128 8.62945 2.91136 9.12054 3.41014L10.6269 4.97217C11.4589 5.88006 11.6481 6.75091 11.3772 7.77078L11.3398 7.9058L11.2984 8.04005L11.097 8.63088C10.666 9.95585 10.846 10.7034 12.3795 12.2365C13.9742 13.8308 14.7186 13.9612 16.1457 13.4625L16.4001 13.3741L16.7077 13.2742L16.8423 13.2369C17.9263 12.9476 18.842 13.1784 19.8132 14.1489L21.0269 15.3213L21.3842 15.6727C21.7803 16.0767 22.0421 16.3967 22.2355 16.735C23.0008 18.0738 22.4893 19.3282 20.5063 21.3039L20.3177 21.495C20.0216 21.7803 19.745 21.9848 19.3386 22.1777C18.6565 22.5016 17.8506 22.6237 16.9142 22.4935C14.6067 22.1726 11.6802 20.3519 7.97188 16.6446C7.67002 16.3428 7.3809 16.0469 7.10425 15.7566L6.56748 15.1837C1.53762 9.71898 1.09389 6.36201 3.15518 4.25664L3.28872 4.12398ZM7.90639 4.31764C7.58059 3.99645 7.34393 3.80065 7.13529 3.68067C6.67376 3.41527 6.17547 3.52746 5.25327 4.32119L4.9635 4.58006C4.91296 4.62671 4.86126 4.67515 4.80835 4.7254L4.47608 5.04903L4.44614 5.08644L4.22088 5.31275C3.67653 5.86876 3.41868 6.54735 3.64088 7.71439C4.00548 9.62941 5.67439 12.2272 9.03238 15.5844C12.5313 19.0824 15.1971 20.7408 17.1208 21.0084C18.2422 21.1643 18.8142 20.8927 19.3975 20.2951L19.8424 19.8462C20.051 19.6279 20.2292 19.43 20.3797 19.2493L20.585 18.9906C21.1097 18.2918 21.1576 17.8725 20.9332 17.48C20.8478 17.3306 20.7236 17.1669 20.5429 16.9668L20.2976 16.7077L20.1525 16.5625L18.6212 15.0839C18.1095 14.612 17.7599 14.5451 17.2289 14.6867L17.0757 14.7308L16.4414 14.9461C14.6013 15.5404 13.2738 15.2523 11.3189 13.2979C9.29427 11.2738 9.05682 9.92209 9.73519 7.97589L9.77871 7.85082L9.89905 7.48825L9.95821 7.25714C10.0631 6.75418 9.94334 6.40349 9.40266 5.86272C9.3804 5.84046 9.35552 5.81538 9.32845 5.78792L7.90639 4.31764Z" fill="#CFCFCF"/>
</svg>
