<svg width="44" height="44" viewBox="0 0 44 44" fill="none" xmlns="http://www.w3.org/2000/svg">
<circle cx="22" cy="22" r="21" stroke="white" stroke-width="2"/>
<path fill-rule="evenodd" clip-rule="evenodd" d="M20.238 13.538C21.2224 12.5534 22.5577 12.0002 23.95 12H26.65C26.8489 12 27.0397 12.079 27.1803 12.2197C27.321 12.3603 27.4 12.5511 27.4 12.75V16.35C27.4 16.5489 27.321 16.7397 27.1803 16.8803C27.0397 17.021 26.8489 17.1 26.65 17.1H23.95C23.9303 17.1 23.9108 17.1039 23.8926 17.1114C23.8744 17.119 23.8579 17.13 23.8439 17.1439C23.83 17.1579 23.819 17.1744 23.8114 17.1926C23.8039 17.2108 23.8 17.2303 23.8 17.25V19.2H26.65C26.764 19.1999 26.8766 19.2259 26.979 19.2758C27.0815 19.3258 27.1713 19.3985 27.2415 19.4883C27.3117 19.5782 27.3604 19.6828 27.3841 19.7944C27.4078 19.9059 27.4057 20.0214 27.378 20.132L26.478 23.732C26.4374 23.8943 26.3437 24.0384 26.2118 24.1413C26.0799 24.2442 25.9173 24.3001 25.75 24.3H23.8V30.75C23.8 30.9489 23.721 31.1397 23.5803 31.2803C23.4397 31.421 23.2489 31.5 23.05 31.5H19.45C19.2511 31.5 19.0603 31.421 18.9197 31.2803C18.779 31.1397 18.7 30.9489 18.7 30.75V24.3H16.75C16.5511 24.3 16.3603 24.221 16.2197 24.0803C16.079 23.9397 16 23.7489 16 23.55V19.95C16 19.8515 16.0194 19.754 16.0571 19.663C16.0948 19.572 16.15 19.4893 16.2197 19.4197C16.2893 19.35 16.372 19.2948 16.463 19.2571C16.554 19.2194 16.6515 19.2 16.75 19.2H18.7V17.25C18.7002 15.8577 19.2534 14.5224 20.238 13.538ZM23.95 13.5C22.9554 13.5 22.0016 13.8951 21.2983 14.5983C20.5951 15.3016 20.2 16.2554 20.2 17.25V19.95C20.2 20.1489 20.121 20.3397 19.9803 20.4803C19.8397 20.621 19.6489 20.7 19.45 20.7H17.5V22.8H19.45C19.6489 22.8 19.8397 22.879 19.9803 23.0197C20.121 23.1603 20.2 23.3511 20.2 23.55V30H22.3V23.55C22.3 23.3511 22.379 23.1603 22.5197 23.0197C22.6603 22.879 22.8511 22.8 23.05 22.8H25.164L25.689 20.7H23.05C22.8511 20.7 22.6603 20.621 22.5197 20.4803C22.379 20.3397 22.3 20.1489 22.3 19.95V17.25C22.3 16.8124 22.4738 16.3927 22.7833 16.0833C23.0927 15.7738 23.5124 15.6 23.95 15.6H25.9V13.5H23.95Z" fill="white"/>
</svg>
