<?xml version="1.0" standalone="no"?>
<!DOCTYPE svg PUBLIC "-//W3C//DTD SVG 20010904//EN"
 "http://www.w3.org/TR/2001/REC-SVG-20010904/DTD/svg10.dtd">
<svg version="1.0" xmlns="http://www.w3.org/2000/svg"
 width="106.000000pt" height="95.000000pt" viewBox="0 0 106.000000 95.000000"
 preserveAspectRatio="xMidYMid meet">

<g transform="translate(0.000000,95.000000) scale(0.100000,-0.100000)"
fill="#000000" stroke="none">
<path d="M374 851 c-73 -18 -128 -74 -145 -148 -13 -57 -11 -453 2 -494 18
-53 58 -99 103 -120 36 -16 68 -19 276 -19 262 0 290 6 343 69 41 49 47 90 47
331 0 215 -1 227 -23 275 -16 33 -38 60 -67 80 l-43 30 -231 2 c-127 1 -245
-2 -262 -6z m190 -207 c22 -22 22 -117 -1 -135 -9 -8 -39 -14 -70 -14 -66 0
-83 17 -83 82 0 60 25 83 89 83 32 0 55 -6 65 -16z m218 -1 c23 -21 26 -114 3
-133 -25 -21 -101 -25 -129 -7 -40 27 -42 124 -3 149 23 15 110 9 129 -9z m5
-216 c13 -8 23 -65 16 -100 -7 -35 -32 -49 -93 -50 -66 -2 -80 12 -80 83 0 59
9 75 45 82 23 4 96 -5 112 -15z m-214 -7 c17 -25 12 -108 -9 -129 -16 -17
-103 -18 -134 -1 -16 9 -20 21 -20 65 0 71 14 85 90 85 48 0 62 -4 73 -20z"/>
<path d="M451 611 c-9 -16 -6 -69 4 -79 8 -8 62 -9 77 -1 13 7 17 19 14 42 -2
17 -4 38 -5 45 -2 21 -78 15 -90 -7z"/>
<path d="M669 623 c-12 -84 2 -107 57 -97 35 6 34 6 36 35 3 66 1 69 -47 69
-25 0 -45 -3 -46 -7z"/>
<path d="M665 398 c-4 -11 -3 -33 4 -81 0 -5 20 -7 44 -5 l42 3 0 45 0 45 -43
3 c-28 2 -44 -1 -47 -10z"/>
<path d="M450 359 l0 -50 48 3 c46 3 47 4 46 36 -2 63 -1 62 -49 62 l-45 0 0
-51z"/>
</g>
</svg>
