<svg width="18" height="23" viewBox="0 0 18 23" fill="none" xmlns="http://www.w3.org/2000/svg">
<path d="M9 2.00002C7.14348 2.00002 5.36301 2.73752 4.05025 4.05028C2.7375 5.36303 2 7.14351 2 9.00002C2 11.862 3.782 14.623 5.738 16.762C6.73814 17.8517 7.82943 18.854 9 19.758C9.17467 19.624 9.37967 19.4607 9.615 19.268C10.5548 18.4963 11.4393 17.6596 12.262 16.764C14.218 14.623 16 11.863 16 9.00002C16 7.14351 15.2625 5.36303 13.9497 4.05028C12.637 2.73752 10.8565 2.00002 9 2.00002ZM9 22.214L8.433 21.824L8.43 21.822L8.424 21.817L8.404 21.803L8.329 21.75L8.059 21.553C6.69086 20.5248 5.41988 19.3733 4.262 18.113C2.218 15.875 0 12.636 0 8.99902C3.55683e-08 6.61207 0.948211 4.32289 2.63604 2.63506C4.32387 0.947235 6.61305 -0.000976563 9 -0.000976562C11.3869 -0.000976562 13.6761 0.947235 15.364 2.63506C17.0518 4.32289 18 6.61207 18 8.99902C18 12.636 15.782 15.876 13.738 18.111C12.5804 19.3713 11.3098 20.5228 9.942 21.551C9.82805 21.6361 9.71305 21.7198 9.597 21.802L9.576 21.816L9.57 21.821L9.568 21.822L9 22.214ZM9 7.00002C8.46957 7.00002 7.96086 7.21074 7.58579 7.58581C7.21071 7.96088 7 8.46959 7 9.00002C7 9.53046 7.21071 10.0392 7.58579 10.4142C7.96086 10.7893 8.46957 11 9 11C9.53043 11 10.0391 10.7893 10.4142 10.4142C10.7893 10.0392 11 9.53046 11 9.00002C11 8.46959 10.7893 7.96088 10.4142 7.58581C10.0391 7.21074 9.53043 7.00002 9 7.00002ZM5 9.00002C5 7.93916 5.42143 6.92174 6.17157 6.1716C6.92172 5.42145 7.93913 5.00002 9 5.00002C10.0609 5.00002 11.0783 5.42145 11.8284 6.1716C12.5786 6.92174 13 7.93916 13 9.00002C13 10.0609 12.5786 11.0783 11.8284 11.8285C11.0783 12.5786 10.0609 13 9 13C7.93913 13 6.92172 12.5786 6.17157 11.8285C5.42143 11.0783 5 10.0609 5 9.00002Z" fill="#CFCFCF"/>
</svg>
