<svg width="20" height="21" viewBox="0 0 20 21" fill="none" xmlns="http://www.w3.org/2000/svg">
<mask id="mask0_133_1101" style="mask-type:luminance" maskUnits="userSpaceOnUse" x="3" y="1" width="15" height="18">
<path fill-rule="evenodd" clip-rule="evenodd" d="M3.3335 1.71362H17.4725V18.6766H3.3335V1.71362Z" fill="white"/>
</mask>
<g mask="url(#mask0_133_1101)">
<path fill-rule="evenodd" clip-rule="evenodd" d="M10.403 2.96362C9.69634 2.96362 5.23801 4.53362 4.72384 4.96279C4.57217 5.11529 4.56634 5.38029 4.59884 7.15446C4.61384 8.00946 4.63467 9.17112 4.63467 10.7795C4.63467 15.1136 9.40301 17.0378 10.4022 17.392C11.4005 17.0361 16.1713 15.1011 16.1713 10.7795C16.1713 9.16946 16.1922 8.00696 16.208 7.15196C16.2397 5.37946 16.2338 5.11446 16.073 4.95446C15.5688 4.53362 11.1097 2.96362 10.403 2.96362ZM10.403 18.677C10.3422 18.677 10.2813 18.6686 10.2222 18.6503C9.94301 18.5661 3.38467 16.5145 3.38467 10.7795C3.38467 9.18196 3.36384 8.02612 3.34884 7.17779C3.31051 5.05862 3.30217 4.61696 3.84967 4.07029C4.50384 3.41446 9.45801 1.71362 10.403 1.71362C11.3472 1.71362 16.3013 3.41446 16.9572 4.07029C17.5038 4.61696 17.4955 5.05862 17.4572 7.17529C17.4422 8.02362 17.4213 9.17946 17.4213 10.7795C17.4213 16.5145 10.863 18.5661 10.5838 18.6503C10.5247 18.6686 10.4638 18.677 10.403 18.677Z" fill="#1376F8"/>
</g>
<path fill-rule="evenodd" clip-rule="evenodd" d="M9.81436 12.147C9.64852 12.147 9.48936 12.0812 9.37186 11.9637L7.79519 10.3853C7.55186 10.1412 7.55186 9.74451 7.79602 9.50118C8.03936 9.25701 8.43602 9.25701 8.68019 9.50118L9.81436 10.637L12.621 7.83034C12.8652 7.58618 13.2602 7.58618 13.5044 7.83034C13.7485 8.07451 13.7485 8.47034 13.5044 8.71451L10.256 11.9637C10.1394 12.0812 9.98019 12.147 9.81436 12.147Z" fill="#1376F8"/>
</svg>
