<svg width="1438" height="713" viewBox="0 0 1438 713" fill="none" xmlns="http://www.w3.org/2000/svg">
<path d="M1437 563.31C1420.13 563.31 1291.95 708.355 1122.33 708.355C886.694 708.355 759.821 179.967 427.945 327.671C164.839 444.767 49.1879 457.296 0.999971 375.859" stroke="url(#paint0_linear_133_777)"/>
<path d="M1437 438.02C1422.06 449.103 1291.95 708.354 1122.33 708.354C886.694 708.354 721.271 237.792 389.395 385.495C126.289 502.592 84.847 483.799 0.999971 424.046" stroke="url(#paint1_linear_133_777)"/>
<path d="M1437 640.411C1420.13 640.411 1291.95 712.211 1122.33 712.211C886.694 712.211 757.069 93.7291 447.22 283.338C221.219 421.638 87.7382 476.572 0.999971 414.41" stroke="url(#paint2_linear_133_777)"/>
<g opacity="0.5">
<g filter="url(#filter0_f_133_777)">
<circle cx="473.601" cy="275.601" r="16.1439" fill="#25B4F8"/>
</g>
<circle cx="474.063" cy="276.063" r="23.0628" fill="#25B4F8"/>
<path d="M470.917 265.766C470.489 265.766 470.078 265.936 469.775 266.238C469.473 266.541 469.303 266.952 469.303 267.38V271.303H465.382C464.954 271.303 464.543 271.473 464.24 271.775C463.938 272.078 463.768 272.489 463.768 272.917V278.913C463.768 279.804 464.491 280.528 465.382 280.528H469.303V284.449C469.303 285.341 470.026 286.064 470.917 286.064H476.913C477.342 286.064 477.752 285.894 478.055 285.591C478.358 285.288 478.528 284.877 478.528 284.449V280.528H482.448C482.877 280.528 483.287 280.358 483.59 280.055C483.893 279.752 484.063 279.341 484.063 278.913V272.917C484.063 272.489 483.893 272.078 483.59 271.775C483.287 271.473 482.877 271.303 482.448 271.303H478.528V267.38C478.528 266.952 478.358 266.541 478.055 266.238C477.752 265.936 477.342 265.766 476.913 265.766H470.917Z" fill="white"/>
</g>
<g opacity="0.3">
<g filter="url(#filter1_f_133_777)">
<circle cx="1263.6" cy="218.601" r="16.1439" fill="#25B4F8"/>
</g>
<circle cx="1264.06" cy="219.063" r="23.0628" fill="#25B4F8"/>
<path d="M1261.37 204C1259.48 204.032 1257.77 205.16 1257 206.905L1266.26 209.701C1266.66 207.274 1265.2 204.921 1262.86 204.207C1262.44 204.079 1262 204.009 1261.56 204H1261.37ZM1256.65 208.074C1256.23 210.508 1257.69 212.868 1260.04 213.58C1262.4 214.293 1264.92 213.126 1265.91 210.868L1256.65 208.074ZM1274.65 211.078C1272.94 211.085 1271.11 211.912 1269.74 213.859L1261.27 225.855C1259 229.07 1259.99 232.434 1262.23 234.02C1264.47 235.614 1267.97 235.431 1270.24 232.217L1278.69 220.227C1280.97 217.005 1279.98 213.648 1277.74 212.055C1276.9 211.458 1275.89 211.112 1274.82 211.078H1274.65ZM1274.53 212.251C1274.62 212.251 1274.71 212.251 1274.79 212.258C1275.61 212.292 1276.38 212.584 1277.03 213.052C1278.77 214.286 1279.65 216.748 1277.69 219.521L1273.32 225.726C1270.89 225.075 1267.77 222.858 1266.35 220.776L1270.74 214.564C1271.88 212.943 1273.25 212.278 1274.53 212.251ZM1252.82 217.419C1252.17 217.426 1251.52 217.561 1250.92 217.826C1248.68 218.809 1247.51 221.318 1248.2 223.678L1257.06 219.806C1256.17 218.307 1254.56 217.399 1252.82 217.419ZM1257.54 220.918L1248.68 224.797C1249.93 226.927 1252.56 227.781 1254.82 226.798C1257.07 225.808 1258.24 223.285 1257.54 220.918Z" fill="white"/>
</g>
<g opacity="0.5">
<g filter="url(#filter2_f_133_777)">
<circle cx="991.601" cy="41.6015" r="16.1439" fill="#25B4F8"/>
</g>
<circle cx="992.063" cy="42.0628" r="23.0628" fill="#25B4F8"/>
<path fill-rule="evenodd" clip-rule="evenodd" d="M996.545 30.8878C996.775 30.6576 997.088 30.5283 997.414 30.5283C997.74 30.5283 998.052 30.6576 998.283 30.8878L1001.75 34.3589L1001.76 34.3663L1001.77 34.3749L1002.63 35.2359C1002.86 35.4678 1002.98 35.7784 1002.98 36.1009C1002.97 36.4234 1002.85 36.732 1002.62 36.9602C1002.39 37.1884 1002.08 37.318 1001.76 37.321C1001.44 37.3241 1001.13 37.2003 1000.89 36.9764L999.153 38.7156L1001.33 40.8903C1001.55 41.1223 1001.68 41.433 1001.67 41.7555C1001.67 42.078 1001.54 42.3865 1001.31 42.6146C1001.08 42.8426 1000.78 42.972 1000.45 42.9748C1000.13 42.9776 999.82 42.8536 999.588 42.6296L998.718 41.7599L991.76 48.7181C991.417 49.0608 991.011 49.3327 990.563 49.5182C990.115 49.7037 989.635 49.7991 989.151 49.7991C988.666 49.7991 988.186 49.7037 987.738 49.5182C987.291 49.3327 986.884 49.0608 986.541 48.7181L982.704 52.557C982.473 52.7878 982.16 52.9175 981.834 52.9176C981.507 52.9178 981.194 52.7883 980.964 52.5576C980.733 52.327 980.603 52.0141 980.603 51.6878C980.603 51.3615 980.732 51.0486 980.963 50.8178L984.802 46.9777C984.11 46.2857 983.722 45.3473 983.722 44.3688C983.722 43.3903 984.11 42.4519 984.802 41.7599L991.76 34.8017L990.891 33.9321C990.666 33.7001 990.542 33.3894 990.545 33.0669C990.548 32.7444 990.677 32.4359 990.905 32.2079C991.134 31.9798 991.442 31.8505 991.765 31.8476C992.087 31.8448 992.398 31.9688 992.63 32.1929L994.804 34.3663L996.544 32.6271C996.313 32.3964 996.184 32.0836 996.184 31.7575C996.184 31.4313 996.313 31.1185 996.544 30.8878M999.151 35.2372L997.413 36.9752L996.544 36.1056L998.283 34.3663L999.151 35.2372ZM988.28 43.4992L987.411 42.6296L989.15 40.8903L990.02 41.7599C990.244 41.9919 990.368 42.3026 990.365 42.6251C990.362 42.9476 990.233 43.2561 990.005 43.4842C989.777 43.7122 989.468 43.8416 989.146 43.8444C988.823 43.8472 988.512 43.7232 988.28 43.4992ZM990.888 40.8903L990.02 40.0207L991.76 38.2815L992.63 39.1511C992.747 39.2645 992.841 39.4003 992.905 39.5503C992.97 39.7004 993.004 39.8618 993.005 40.0251C993.007 40.1884 992.976 40.3504 992.914 40.5016C992.852 40.6527 992.76 40.7901 992.645 40.9056C992.53 41.0211 992.392 41.1124 992.241 41.1742C992.09 41.2361 991.928 41.2672 991.765 41.2658C991.601 41.2644 991.44 41.2304 991.29 41.166C991.14 41.1015 991.004 41.0078 990.891 40.8903" fill="white"/>
</g>
<g opacity="0.5">
<g filter="url(#filter3_f_133_777)">
<circle cx="113.601" cy="464.601" r="16.1439" fill="#25B4F8"/>
</g>
<circle cx="114.063" cy="465.063" r="23.0628" fill="#25B4F8"/>
<path d="M108.455 456.228C108.455 455.881 108.317 455.549 108.072 455.304C107.827 455.059 107.495 454.921 107.148 454.921C106.802 454.921 106.469 455.059 106.224 455.304C105.979 455.549 105.841 455.881 105.841 456.228C104.801 456.228 103.804 456.641 103.069 457.376C102.334 458.111 101.921 459.109 101.921 460.148V462.762C101.92 464.616 102.577 466.409 103.773 467.825C104.969 469.24 106.628 470.186 108.455 470.495V470.604C108.455 472.683 109.281 474.678 110.752 476.148C112.222 477.619 114.217 478.445 116.296 478.445C118.376 478.445 120.371 477.619 121.841 476.148C123.312 474.678 124.138 472.683 124.138 470.604V469.075C125.01 468.766 125.745 468.159 126.214 467.361C126.682 466.563 126.853 465.626 126.696 464.714C126.54 463.802 126.066 462.975 125.359 462.378C124.652 461.782 123.756 461.455 122.831 461.455C121.906 461.455 121.01 461.782 120.303 462.378C119.596 462.975 119.122 463.802 118.965 464.714C118.809 465.626 118.98 466.563 119.448 467.361C119.916 468.159 120.652 468.766 121.524 469.075V470.604C121.524 471.99 120.973 473.32 119.993 474.3C119.013 475.28 117.683 475.831 116.296 475.831C114.91 475.831 113.58 475.28 112.6 474.3C111.62 473.32 111.069 471.99 111.069 470.604V470.495C112.896 470.186 114.555 469.24 115.751 467.825C116.947 466.409 117.604 464.616 117.603 462.762V460.148C117.603 459.109 117.19 458.111 116.455 457.376C115.72 456.641 114.722 456.228 113.683 456.228C113.683 455.881 113.545 455.549 113.3 455.304C113.055 455.059 112.722 454.921 112.376 454.921C112.029 454.921 111.697 455.059 111.452 455.304C111.207 455.549 111.069 455.881 111.069 456.228V458.842C111.069 459.188 111.207 459.521 111.452 459.766C111.697 460.011 112.029 460.148 112.376 460.148C112.722 460.148 113.055 460.011 113.3 459.766C113.545 459.521 113.683 459.188 113.683 458.842C114.029 458.842 114.362 458.979 114.607 459.224C114.852 459.469 114.99 459.802 114.99 460.148V462.762C114.99 464.149 114.439 465.478 113.458 466.459C112.478 467.439 111.148 467.99 109.762 467.99C108.376 467.99 107.046 467.439 106.066 466.459C105.085 465.478 104.534 464.149 104.534 462.762V460.148C104.534 459.802 104.672 459.469 104.917 459.224C105.162 458.979 105.495 458.842 105.841 458.842C105.841 459.188 105.979 459.521 106.224 459.766C106.469 460.011 106.802 460.148 107.148 460.148C107.495 460.148 107.827 460.011 108.072 459.766C108.317 459.521 108.455 459.188 108.455 458.842V456.228Z" fill="white"/>
</g>
<path d="M1 319.31C17.8658 319.31 146.046 464.355 315.667 464.355C551.306 464.355 678.179 -64.0325 1010.06 83.6706C1273.16 200.767 1388.81 213.296 1437 131.859" stroke="url(#paint3_linear_133_777)"/>
<path d="M1 194.02C15.9383 205.103 146.046 464.354 315.667 464.354C551.306 464.354 716.729 -6.20768 1048.61 141.495C1311.71 258.592 1353.15 239.799 1437 180.046" stroke="url(#paint4_linear_133_777)"/>
<path d="M1 396.411C17.8658 396.411 146.046 468.211 315.667 468.211C551.306 468.211 680.931 -150.271 990.78 39.3382C1216.78 177.638 1350.26 232.572 1437 170.41" stroke="url(#paint5_linear_133_777)"/>
<defs>
<filter id="filter0_f_133_777" x="432.458" y="234.458" width="82.2878" height="82.2881" filterUnits="userSpaceOnUse" color-interpolation-filters="sRGB">
<feFlood flood-opacity="0" result="BackgroundImageFix"/>
<feBlend mode="normal" in="SourceGraphic" in2="BackgroundImageFix" result="shape"/>
<feGaussianBlur stdDeviation="12.5" result="effect1_foregroundBlur_133_777"/>
</filter>
<filter id="filter1_f_133_777" x="1222.46" y="177.458" width="82.2878" height="82.2881" filterUnits="userSpaceOnUse" color-interpolation-filters="sRGB">
<feFlood flood-opacity="0" result="BackgroundImageFix"/>
<feBlend mode="normal" in="SourceGraphic" in2="BackgroundImageFix" result="shape"/>
<feGaussianBlur stdDeviation="12.5" result="effect1_foregroundBlur_133_777"/>
</filter>
<filter id="filter2_f_133_777" x="950.458" y="0.45752" width="82.2878" height="82.2881" filterUnits="userSpaceOnUse" color-interpolation-filters="sRGB">
<feFlood flood-opacity="0" result="BackgroundImageFix"/>
<feBlend mode="normal" in="SourceGraphic" in2="BackgroundImageFix" result="shape"/>
<feGaussianBlur stdDeviation="12.5" result="effect1_foregroundBlur_133_777"/>
</filter>
<filter id="filter3_f_133_777" x="72.4575" y="423.458" width="82.2878" height="82.2881" filterUnits="userSpaceOnUse" color-interpolation-filters="sRGB">
<feFlood flood-opacity="0" result="BackgroundImageFix"/>
<feBlend mode="normal" in="SourceGraphic" in2="BackgroundImageFix" result="shape"/>
<feGaussianBlur stdDeviation="12.5" result="effect1_foregroundBlur_133_777"/>
</filter>
<linearGradient id="paint0_linear_133_777" x1="719" y1="301.612" x2="719" y2="708.355" gradientUnits="userSpaceOnUse">
<stop stop-color="#C1DEEF"/>
<stop offset="1" stop-color="#C1DEEF" stop-opacity="0"/>
</linearGradient>
<linearGradient id="paint1_linear_133_777" x1="719" y1="356.8" x2="719" y2="708.354" gradientUnits="userSpaceOnUse">
<stop stop-color="#C1DEEF"/>
<stop offset="1" stop-color="#C1DEEF" stop-opacity="0"/>
</linearGradient>
<linearGradient id="paint2_linear_133_777" x1="719" y1="247.211" x2="719" y2="712.211" gradientUnits="userSpaceOnUse">
<stop stop-color="#C1DEEF"/>
<stop offset="1" stop-color="#C1DEEF" stop-opacity="0"/>
</linearGradient>
<linearGradient id="paint3_linear_133_777" x1="719" y1="57.6123" x2="719" y2="464.355" gradientUnits="userSpaceOnUse">
<stop stop-color="#C1DEEF"/>
<stop offset="1" stop-color="#C1DEEF" stop-opacity="0"/>
</linearGradient>
<linearGradient id="paint4_linear_133_777" x1="719" y1="112.8" x2="719" y2="464.354" gradientUnits="userSpaceOnUse">
<stop stop-color="#C1DEEF"/>
<stop offset="1" stop-color="#C1DEEF" stop-opacity="0"/>
</linearGradient>
<linearGradient id="paint5_linear_133_777" x1="719" y1="3.21094" x2="719" y2="468.211" gradientUnits="userSpaceOnUse">
<stop stop-color="#C1DEEF"/>
<stop offset="1" stop-color="#C1DEEF" stop-opacity="0"/>
</linearGradient>
</defs>
</svg>
