<svg width="40" height="40" viewBox="0 0 40 40" fill="none" xmlns="http://www.w3.org/2000/svg">
<circle cx="20" cy="20" r="19" stroke="white" stroke-width="2"/>
<path d="M28.736 15.1996C28.12 15.4796 27.456 15.6636 26.768 15.7516C27.472 15.3276 28.016 14.6556 28.272 13.8476C27.608 14.2476 26.872 14.5276 26.096 14.6876C25.464 13.9996 24.576 13.5996 23.568 13.5996C21.688 13.5996 20.152 15.1356 20.152 17.0316C20.152 17.3036 20.184 17.5676 20.24 17.8156C17.392 17.6716 14.856 16.3036 13.168 14.2316C12.872 14.7356 12.704 15.3276 12.704 15.9516C12.704 17.1436 13.304 18.1996 14.232 18.7996C13.664 18.7996 13.136 18.6396 12.672 18.3996V18.4236C12.672 20.0876 13.856 21.4796 15.424 21.7916C14.9207 21.93 14.392 21.9491 13.88 21.8476C14.0973 22.5296 14.5228 23.1263 15.0968 23.554C15.6708 23.9816 16.3644 24.2186 17.08 24.2316C15.8669 25.192 14.3632 25.7111 12.816 25.7036C12.544 25.7036 12.272 25.6876 12 25.6556C13.52 26.6316 15.328 27.1996 17.264 27.1996C23.568 27.1996 27.032 21.9676 27.032 17.4316C27.032 17.2796 27.032 17.1356 27.024 16.9836C27.696 16.5036 28.272 15.8956 28.736 15.1996Z" fill="white"/>
</svg>
