<svg width="433" height="20" viewBox="0 0 433 20" fill="none" xmlns="http://www.w3.org/2000/svg">
<path fill-rule="evenodd" clip-rule="evenodd" d="M9.04117 17.0626C18.3569 16.1404 42.4084 15.7717 107.693 14.7994C209.637 13.286 290.709 11.303 313.457 9.7202C315.267 9.57622 172.586 10.6532 157.781 11.4915C134.692 12.8406 25.6495 13.4575 3.92089 12.5625C-2.26019 12.3291 0.316604 11.1811 4.43899 10.8863C10.8819 10.4007 27.9438 10.2072 74.7306 9.64679C107.635 9.23653 369.681 4.73878 398.64 2.71336C414.898 1.57698 424.836 0.606526 429.257 0.744767C432.961 0.853072 432.917 1.33056 429.406 2.69002C427.047 3.59658 429.392 4.08113 430.904 4.2989C433.22 4.66464 431.932 6.03344 428.694 7.15072C424.312 8.68104 417.292 8.73731 420.948 7.2169C421.74 6.88815 422.074 6.08876 419.475 6.28328C411.899 6.86376 358.387 10.8543 343.933 11.6084C189.591 19.7597 41.126 17.3789 9.18711 19.2861C-2.14252 19.9974 3.47408 17.6156 9.04117 17.0626Z" fill="#25B4F8"/>
</svg>
