<svg width="380" height="10" viewBox="0 0 380 10" fill="none" xmlns="http://www.w3.org/2000/svg">
<path fill-rule="evenodd" clip-rule="evenodd" d="M9.07511 2.15014C17.1064 2.70393 38.2131 2.73163 95.51 2.78701C184.981 2.87008 255.99 3.47924 275.725 4.36531C277.292 4.44838 151.876 5.05755 138.997 4.61451C118.918 3.89458 23.0319 4.50376 3.73716 5.33445C-1.74764 5.55596 0.309182 6.33127 3.8841 6.49741C9.46683 6.77431 24.4522 6.74661 65.5394 6.69123C94.4326 6.66354 324.305 7.30041 349.427 8.43568C363.531 9.07254 372.101 9.65402 376.019 9.51558C379.3 9.40482 379.349 9.07254 376.508 8.15879C374.598 7.54962 376.753 7.18965 378.124 7.02351C380.23 6.74662 379.349 5.80517 376.704 5.05755C373.129 4.03303 366.959 4.06073 369.897 5.08524C370.534 5.30676 370.681 5.86055 368.428 5.74979C361.866 5.41751 315.49 3.14697 302.904 2.75932C168.526 -1.4495 37.3806 1.62404 9.61375 0.599523C-0.229527 0.211869 4.27592 1.81787 9.07511 2.15014Z" fill="#25B4F8"/>
</svg>
