<svg width="133" height="93" viewBox="0 0 133 93" fill="none" xmlns="http://www.w3.org/2000/svg">
<g clip-path="url(#clip0_133_1330)">
<path d="M84.7475 0C84.7826 0 84.8177 0 84.8539 0C84.9242 0.0815903 84.9242 0.0815903 85.0048 0.197115C85.0348 0.239869 85.0647 0.282623 85.0956 0.326673C85.1278 0.373505 85.1599 0.420338 85.1931 0.468589C85.2265 0.516861 85.2599 0.565133 85.2943 0.614868C86.2084 1.94523 87.002 3.34434 87.7267 4.78559C87.7537 4.83877 87.7807 4.89195 87.8085 4.94675C88.6272 6.56689 89.2623 8.26549 89.8015 9.99657C89.8219 10.0617 89.8422 10.1268 89.8632 10.1939C90.5105 12.2941 90.9444 14.501 91.0783 16.6964C91.0828 16.7655 91.0873 16.8347 91.092 16.9059C91.1284 17.4876 91.1423 18.0677 91.1415 18.6505C91.1414 18.6953 91.1414 18.7401 91.1413 18.7862C91.1311 23.0702 90.0604 27.1748 88.1523 31C88.1285 31.0479 88.1046 31.0957 88.0801 31.1451C87.4241 32.4523 86.6332 33.6743 85.8115 34.8816C85.7822 34.9249 85.7528 34.9682 85.7225 35.0127C85.5587 35.2537 85.3932 35.4935 85.2263 35.7324C85.2019 35.7675 85.1774 35.8027 85.1522 35.8388C84.7569 36.4053 84.35 36.9627 83.9386 37.5175C83.8423 37.6477 83.7465 37.7783 83.6509 37.909C83.3031 38.3838 82.95 38.8528 82.5832 39.3131C82.5121 39.4026 82.4416 39.4926 82.3712 39.5827C82.0245 40.0264 81.6712 40.4644 81.3149 40.9004C81.2453 40.9855 81.176 41.0708 81.1067 41.1561C80.8711 41.4454 80.6317 41.7311 80.3899 42.0153C80.233 42.2 80.0789 42.3868 79.9263 42.5751C79.7358 42.8092 79.5366 43.0332 79.3332 43.256C79.2159 43.3881 79.1054 43.5238 78.9953 43.6619C78.7544 43.9598 78.4942 44.2374 78.2301 44.5149C78.0327 44.7224 77.8412 44.9336 77.6534 45.1499C77.526 45.2956 77.3948 45.4377 77.263 45.5794C77.207 45.6397 77.1511 45.7 77.0952 45.7603C77.0532 45.8057 77.0532 45.8057 77.0103 45.8519C76.9313 45.9371 76.8526 46.0225 76.774 46.1081C75.5706 47.4163 75.5706 47.4163 74.9813 47.9909C74.8423 48.1274 74.7113 48.267 74.5851 48.4153C74.3394 48.697 74.0746 48.9589 73.8097 49.2222C73.7537 49.2782 73.6976 49.3341 73.6416 49.3901C73.5216 49.5098 73.4016 49.6294 73.2815 49.749C73.0912 49.9384 72.9012 50.128 72.7112 50.3177C72.2736 50.7544 71.8358 51.1909 71.3979 51.6273C70.9964 52.0276 70.5949 52.428 70.1936 52.8285C70.005 53.0167 69.8163 53.2048 69.6276 53.3927C69.5098 53.51 69.3922 53.6274 69.2746 53.7449C69.2204 53.7989 69.1662 53.8529 69.1119 53.9069C68.8421 54.1752 68.5778 54.4448 68.3309 54.7344C68.2216 54.8609 68.1036 54.9775 67.9841 55.0943C67.9121 55.1653 67.9121 55.1653 67.8387 55.2378C67.7394 55.3351 67.6401 55.4323 67.5406 55.5294C67.2903 55.7766 67.0644 56.0152 66.8723 56.3105C66.9194 56.3153 66.9666 56.3201 67.0151 56.325C67.3306 56.3703 67.6339 56.4689 67.9397 56.5564C72.3616 57.7981 77.0507 58.3048 87.1415 55.9382C87.1811 55.9207 87.2207 55.9032 87.2615 55.8851C88.9321 55.1436 90.5558 54.0728 91.8231 52.7479C91.951 52.619 92.0795 52.4912 92.2109 52.3659C92.5829 52.0071 92.8957 51.6177 93.2063 51.2058C93.2311 51.1734 93.2559 51.1409 93.2814 51.1075C94.8806 49.0102 95.8398 46.4938 96.2786 43.9078C96.2892 43.8456 96.2998 43.7834 96.3107 43.7193C96.4756 42.6967 96.5264 41.6862 96.5247 40.6509C96.5247 40.5549 96.5247 40.5549 96.5246 40.4569C96.5227 39.3649 96.4597 38.2999 96.2919 37.2213C96.286 37.183 96.2801 37.1448 96.2741 37.1053C96.1976 36.6111 96.1151 36.1182 96.0259 35.6261C96.1764 35.7546 96.2278 35.8729 96.289 36.0596C96.317 36.1447 96.317 36.1447 96.3455 36.2316C96.3651 36.2939 96.3847 36.3562 96.405 36.4203C96.4257 36.4857 96.4464 36.5511 96.4678 36.6185C96.9823 38.2664 97.3681 39.9659 97.5155 41.6878C97.5214 41.7496 97.5273 41.8113 97.5334 41.875C97.8573 45.9129 96.836 50.0284 94.2171 53.1732C94.1832 53.2143 94.1832 53.2143 94.1486 53.2562C93.6199 53.895 93.0509 54.5078 92.4083 55.0343C92.3693 55.0669 92.3693 55.0669 92.3294 55.1001C88.8282 58.0146 84.2847 59.3392 79.7999 59.6604C79.7476 59.6642 79.7476 59.6642 79.6943 59.668C78.9827 59.7178 78.272 59.7242 77.5589 59.7235C77.5004 59.7235 77.4419 59.7235 77.3817 59.7234C76.4102 59.722 75.4478 59.6962 74.4799 59.6072C74.4439 59.604 74.4078 59.6007 74.3706 59.5974C71.567 59.3452 68.778 58.7838 66.0905 57.9479C66.0277 57.9285 65.965 57.909 65.9004 57.889C65.8452 57.8717 65.79 57.8544 65.7331 57.8365C65.5936 57.7924 65.5936 57.7924 65.4359 57.7993C65.3314 57.9044 65.3314 57.9044 65.2264 58.0452C65.1842 58.0987 65.142 58.1522 65.0984 58.2073C65.0757 58.2361 65.0529 58.2649 65.0294 58.2946C64.9042 58.4499 64.7722 58.5993 64.6413 58.7498C63.615 59.9392 62.7048 61.2532 61.939 62.6237C61.8957 62.7011 61.8522 62.7784 61.8082 62.8554C61.0605 64.1674 60.6049 65.6006 60.3041 67.0731C60.2614 67.2791 60.2153 67.4843 60.1691 67.6895C59.624 67.1932 59.4737 66.1757 59.4291 65.4629C59.4267 65.3807 59.4267 65.3807 59.4243 65.2967C59.4232 65.259 59.4221 65.2213 59.421 65.1825C59.3458 62.1108 60.3193 59.0213 61.6055 56.2573C61.5688 56.2516 61.532 56.2458 61.4942 56.2399C61.3145 56.1983 61.1612 56.1321 60.9931 56.0562C60.9594 56.0411 60.9258 56.0259 60.8911 56.0103C60.7799 55.96 60.669 55.9093 60.5582 55.8585C60.5198 55.841 60.4814 55.8234 60.4418 55.8054C59.1669 55.2226 57.9087 54.6038 56.6978 53.8966C56.5437 53.8068 56.389 53.718 56.2342 53.6294C53.6569 52.148 51.1992 50.4244 48.935 48.4983C48.7551 48.3455 48.5729 48.1963 48.3886 48.0487C48.1219 47.8319 47.8703 47.6013 47.6204 47.3656C47.4621 47.2165 47.302 47.0704 47.1378 46.9277C46.5347 46.4032 45.9653 45.8411 45.3995 45.277C45.3503 45.2281 45.3012 45.1793 45.2506 45.1289C45.0127 44.8907 44.7824 44.6497 44.5631 44.3943C44.4086 44.2169 44.2449 44.0482 44.0828 43.8779C43.8166 43.5962 43.5616 43.3107 43.3201 43.0074C43.2014 42.8614 43.0787 42.7202 42.9542 42.5791C42.5845 42.1595 42.2411 41.7244 41.9059 41.2769C41.8126 41.1527 41.7184 41.029 41.6241 40.9054C40.917 39.9753 40.2403 39.0262 39.6448 38.0203C39.583 37.9164 39.5203 37.813 39.4573 37.7098C39.1468 37.2005 38.8542 36.6821 38.5699 36.1578C38.5453 36.1126 38.5207 36.0674 38.4953 36.0208C36.1709 31.7308 34.8556 26.75 36.0695 20.0995C36.698 18.0245 37.7367 16.1909 39.1019 14.5163C39.1246 14.4881 39.1473 14.4599 39.1706 14.4308C39.5303 13.9854 39.9254 13.576 40.3288 13.1703C40.3773 13.1215 40.4257 13.0726 40.4755 13.0223C40.7994 12.7 41.1384 12.4076 41.4959 12.1235C41.5621 12.069 41.6281 12.0144 41.694 11.9596C42.19 11.5522 42.7101 11.1917 43.2515 10.8473C43.2847 10.8262 43.3178 10.805 43.352 10.7832C46.6765 8.68011 50.677 7.73739 54.5831 7.65695C54.6372 7.65578 54.6912 7.65462 54.7469 7.65342C59.1555 7.57359 63.4885 8.48527 68.1657 10.083C68.2285 10.105 68.2913 10.127 68.356 10.1496C68.4126 10.17 68.4692 10.1904 68.5276 10.2113C68.6014 10.2378 68.6014 10.2378 68.6768 10.2648C68.7875 10.3156 68.7875 10.3156 68.8407 10.422C68.4697 10.3597 68.1049 10.2819 67.7395 10.1928C65.7762 9.7157 63.7744 9.38965 61.7618 9.21226C61.7261 9.20911 61.6903 9.20596 61.6535 9.20272C61.4071 9.1814 61.1606 9.1627 60.9139 9.1458C60.8768 9.14322 60.8396 9.14065 60.8013 9.138C60.0367 9.08692 59.2727 9.08193 58.5066 9.08265C58.4432 9.08269 58.3798 9.08272 58.3144 9.08275C57.3323 9.0841 56.3591 9.10229 55.3811 9.19897C55.3291 9.20401 55.3291 9.20401 55.2761 9.20915C50.7913 9.64569 46.1591 10.9317 41.5491 14.5695C41.5065 14.6061 41.464 14.6427 41.4201 14.6804C40.7438 15.2734 40.0973 15.9049 39.5807 16.6432C39.5588 16.6743 39.5368 16.7054 39.5141 16.7374C37.4859 19.6223 37.1909 23.2677 37.7622 26.6639C38.1693 28.9649 38.9108 31.1729 39.8999 33.2864C39.9257 33.342 39.9515 33.3976 39.978 33.4549C40.8437 35.3181 41.8775 37.0706 43.0387 38.7633C43.0669 38.8044 43.095 38.8455 43.124 38.8879C44.1135 40.3279 45.2131 41.7114 46.3889 43.0043C46.4829 43.1082 46.5749 43.2134 46.6663 43.3196C47.2028 43.9333 47.7741 44.5153 48.3513 45.0905C48.4597 45.1985 48.5678 45.3068 48.6758 45.4151C48.7462 45.4854 48.8166 45.5557 48.887 45.626C48.9185 45.6576 48.9501 45.6892 48.9826 45.7218C49.179 45.9171 49.3821 46.1023 49.592 46.2831C49.7398 46.4114 49.8818 46.5456 50.0246 46.6795C50.2796 46.9166 50.5413 47.1414 50.813 47.3595C50.9876 47.5017 51.1577 47.6487 51.328 47.7961C51.6595 48.0818 51.9988 48.3554 52.3456 48.6223C52.424 48.6827 52.5023 48.7433 52.5805 48.8039C53.1867 49.274 53.8007 49.7264 54.4388 50.1523C54.5717 50.2411 54.7042 50.3303 54.8367 50.4196C55.9836 51.1927 57.1491 51.9193 58.3603 52.5883C58.4113 52.6166 58.4622 52.6448 58.5147 52.6739C59.588 53.2673 60.6802 53.8248 61.795 54.3364C61.8682 54.3701 61.8682 54.3701 61.9427 54.4046C62.0096 54.4348 62.0096 54.4348 62.0779 54.4656C62.1166 54.4831 62.1553 54.5007 62.1952 54.5187C62.3041 54.5648 62.3041 54.5648 62.4567 54.5557C62.4829 54.506 62.5092 54.4562 62.5362 54.405C63.4117 52.7446 63.4117 52.7446 63.6936 52.2427C64.2985 51.1656 64.8723 50.0717 65.4359 48.9726C65.4623 48.9213 65.4887 48.87 65.5159 48.8172C66.356 47.1832 67.076 45.482 67.5639 43.7084C67.5761 43.665 67.5883 43.6215 67.6008 43.5768C67.7711 42.9585 67.878 42.3313 67.9729 41.6978C67.9811 41.6439 67.9811 41.6439 67.9895 41.5889C68.1614 40.4469 68.2224 39.3059 68.2189 38.1518C68.2189 38.0922 68.2189 38.0325 68.2189 37.9711C68.218 37.0345 68.1762 36.113 68.0574 35.1837C68.0433 35.0463 68.0417 34.9133 68.0427 34.7753C67.9392 34.7772 67.9392 34.7772 67.8335 34.7792C67.1823 34.7911 66.5311 34.7999 65.8798 34.8056C65.545 34.8087 65.2102 34.8128 64.8754 34.8194C64.5522 34.8258 64.2291 34.8293 63.9058 34.8308C63.7826 34.8319 63.6594 34.834 63.5362 34.8371C62.5708 34.8609 62.5708 34.8609 62.2905 34.6506C62.1797 34.5006 62.1055 34.3607 62.0311 34.1904C61.9723 34.1005 61.9122 34.0115 61.8499 33.9239C61.7949 33.8411 61.7401 33.7582 61.6853 33.6753C61.6568 33.6323 61.6283 33.5893 61.5989 33.5449C61.53 33.4411 61.4613 33.3372 61.3927 33.2333C61.2234 33.5576 61.0859 33.8865 60.9563 34.2284C60.9353 34.2832 60.9143 34.3381 60.8927 34.3946C60.8477 34.5122 60.8027 34.6299 60.7579 34.7477C60.6385 35.0611 60.5184 35.3742 60.3983 35.6873C60.3742 35.7503 60.3501 35.8133 60.3253 35.8782C60.0961 36.4765 59.8634 37.0735 59.6295 37.67C59.4224 38.1981 59.2172 38.7269 59.0147 39.2568C58.9728 39.3663 58.9309 39.4757 58.8889 39.5852C58.8278 39.7449 58.7667 39.9046 58.7061 40.0645C58.6506 40.2108 58.5947 40.3569 58.5386 40.5031C58.5221 40.547 58.5056 40.591 58.4885 40.6363C58.3724 40.9373 58.3724 40.9373 58.2539 40.9966C57.9184 38.7759 57.5905 36.5543 57.2668 34.3319C57.2059 33.9145 57.1451 33.4972 57.0842 33.0799C56.9597 32.2271 56.8354 31.3743 56.7111 30.5214C56.6109 30.6717 56.5665 30.7812 56.5135 30.9516C56.496 31.0076 56.4784 31.0637 56.4603 31.1215C56.4318 31.2139 56.4318 31.2139 56.4027 31.3082C56.3824 31.3734 56.3621 31.4385 56.3412 31.5056C56.2969 31.6477 56.2527 31.7899 56.2087 31.9321C56.1388 32.1582 56.0684 32.3841 55.998 32.61C55.7633 33.3642 55.5299 34.1187 55.2969 34.8734C55.2429 35.0481 55.189 35.2227 55.135 35.3974C55.1218 35.44 55.1086 35.4827 55.095 35.5266C55.0687 35.612 55.0423 35.6973 55.0159 35.7827C54.9384 36.0334 54.8611 36.2842 54.784 36.5351C54.7357 36.6921 54.6872 36.849 54.6387 37.006C54.6163 37.0788 54.5939 37.1516 54.5716 37.2244C54.4663 37.5679 54.3627 37.9057 54.2107 38.2316C54.0625 38.0546 53.9837 37.873 53.8984 37.6593C53.8838 37.623 53.8692 37.5867 53.8541 37.5493C53.8222 37.4698 53.7904 37.3903 53.7588 37.3107C53.6899 37.1375 53.6203 36.9646 53.5507 36.7916C53.5129 36.6975 53.4751 36.6035 53.4374 36.5094C53.2134 35.9514 52.986 35.3949 52.7585 34.8383C52.6891 34.6685 52.6197 34.4987 52.5504 34.3289C52.5069 34.2223 52.4633 34.1157 52.4198 34.0091C52.389 33.9335 52.389 33.9335 52.3575 33.8565C52.2288 33.5415 52.0981 33.2276 51.9638 32.915C51.9231 32.8079 51.9231 32.8079 51.9231 32.7015C51.8896 32.702 51.856 32.7025 51.8214 32.7031C51.4091 32.7064 51.0004 32.6852 50.589 32.6585C50.5156 32.6538 50.4422 32.6492 50.3688 32.6446C50.1712 32.6321 49.9735 32.6194 49.7759 32.6067C49.5679 32.5933 49.3599 32.5801 49.1519 32.5669C48.8027 32.5447 48.4534 32.5224 48.1042 32.5C47.6578 32.4713 47.2113 32.4429 46.7649 32.4145C46.3789 32.39 45.9928 32.3654 45.6068 32.3408C45.5245 32.3355 45.4421 32.3303 45.3598 32.325C45.1248 32.31 44.8898 32.295 44.6548 32.2799C44.5507 32.2732 44.4466 32.2666 44.3425 32.26C43.9254 32.2331 43.5086 32.2029 43.0919 32.1698C43.2821 32.0431 43.3926 32.0398 43.6193 32.0204C43.6757 32.0154 43.6757 32.0154 43.7333 32.0103C43.8597 31.9991 43.9862 31.9886 44.1126 31.9782C44.2032 31.9703 44.2937 31.9625 44.3842 31.9546C44.6304 31.9332 44.8767 31.9123 45.1229 31.8916C45.3806 31.8699 45.6383 31.8476 45.8959 31.8254C46.329 31.7882 46.762 31.7513 47.1951 31.7147C47.6954 31.6723 48.1956 31.6296 48.6958 31.5865C49.2285 31.5407 49.7612 31.4952 50.294 31.4497C50.4473 31.4366 50.6006 31.4235 50.7539 31.4103C50.9953 31.3896 51.2367 31.3691 51.4782 31.3488C51.5666 31.3413 51.6551 31.3338 51.7435 31.3261C51.8646 31.3157 51.9857 31.3056 52.1068 31.2954C52.1745 31.2897 52.2421 31.2839 52.3118 31.278C52.5202 31.2651 52.7252 31.2638 52.9339 31.2659C53.0684 31.5942 53.2028 31.9225 53.3372 32.2509C53.3829 32.3625 53.4286 32.4742 53.4744 32.5858C53.5401 32.7465 53.6059 32.9071 53.6717 33.0677C53.6921 33.1175 53.7125 33.1673 53.7335 33.2187C53.7526 33.2655 53.7718 33.3123 53.7915 33.3605C53.8083 33.4015 53.8251 33.4425 53.8424 33.4847C53.8947 33.6134 53.9464 33.7423 53.9979 33.8714C54.144 33.4973 54.2643 33.1167 54.3838 32.7335C54.406 32.6628 54.4282 32.592 54.4504 32.5212C54.5101 32.3308 54.5696 32.1404 54.6291 31.9499C54.6791 31.7896 54.7293 31.6294 54.7794 31.4692C55.1098 30.4137 55.4388 29.3577 55.7668 28.3015C55.786 28.2397 55.8052 28.1779 55.825 28.1143C56.0372 27.4315 56.2482 26.7484 56.457 26.0646C56.5302 25.8249 56.6037 25.5852 56.6772 25.3456C56.7366 25.1512 56.7956 24.9568 56.8546 24.7623C56.8904 24.6453 56.9263 24.5283 56.9622 24.4113C56.9784 24.3574 56.9945 24.3035 57.0112 24.248C57.0263 24.1993 57.0413 24.1505 57.0568 24.1003C57.0698 24.0578 57.0827 24.0153 57.096 23.9715C57.1367 23.8748 57.1367 23.8748 57.2431 23.8216C57.5068 25.5668 57.767 27.3126 58.0228 29.059C58.0292 29.1023 58.0355 29.1456 58.0421 29.1902C58.1528 29.9462 58.2634 30.7023 58.374 31.4583C58.4466 31.9545 58.5192 32.4507 58.5919 32.9469C58.6288 33.199 58.6657 33.451 58.7025 33.7031C58.7251 33.858 58.7478 34.0128 58.7705 34.1676C58.786 34.2731 58.8014 34.3787 58.8167 34.4842C58.8306 34.5785 58.8306 34.5785 58.8447 34.6747C58.8527 34.7291 58.8606 34.7836 58.8688 34.8396C58.8908 34.9786 58.9168 35.1161 58.9455 35.2539C58.9561 35.2266 58.9666 35.1994 58.9775 35.1714C59.2313 34.516 59.4854 33.8607 59.7399 33.2056C59.8589 32.8993 59.9778 32.593 60.0965 32.2866C60.207 32.0014 60.3177 31.7162 60.4287 31.4312C60.4706 31.3232 60.5125 31.2153 60.5543 31.1073C60.6124 30.9568 60.671 30.8065 60.7296 30.6562C60.7554 30.5892 60.7554 30.5892 60.7817 30.5208C60.9018 30.2145 60.9018 30.2145 61.0203 30.0961C61.3078 30.4521 61.5642 30.8236 61.815 31.206C62.0512 31.5656 62.2878 31.9226 62.5495 32.2643C62.6395 32.3928 62.7109 32.5104 62.7825 32.6483C63.0022 33.0601 63.0022 33.0601 63.364 33.3349C63.6725 33.4094 63.9862 33.3921 64.3011 33.3812C64.4016 33.3808 64.5022 33.3808 64.6027 33.3811C64.8657 33.381 65.1283 33.3758 65.3911 33.3695C65.66 33.364 65.9289 33.3633 66.1979 33.3623C66.7243 33.3594 67.2504 33.3512 67.7767 33.3396C67.7435 33.2148 67.7103 33.09 67.677 32.9652C67.6677 32.9304 67.6585 32.8956 67.649 32.8598C66.8491 29.8588 65.6345 26.8576 63.4675 24.566C63.4018 24.491 63.3364 24.4157 63.2714 24.3401C63.1566 24.2077 63.0382 24.083 62.9123 23.9612C62.7759 23.8216 62.7759 23.8216 62.7759 23.7153C62.7324 23.6981 62.7324 23.6981 62.688 23.6806C62.5204 23.5844 62.3993 23.4517 62.2672 23.3131C62.0209 23.061 61.7661 22.8319 61.4896 22.6125C61.3573 22.5066 61.229 22.3972 61.1012 22.286C58.3706 19.9224 54.9571 18.7349 51.3911 18.4511C51.3302 18.4461 51.2693 18.441 51.2065 18.4358C50.5305 18.3862 49.8542 18.3875 49.1767 18.388C49.114 18.3879 49.0514 18.3879 48.9869 18.3879C47.8703 18.3879 46.7593 18.4266 45.6455 18.5043C45.6455 18.4692 45.6455 18.4341 45.6455 18.3979C49.7673 16.0849 54.5836 14.7055 59.2647 16.0051C59.335 16.0244 59.335 16.0244 59.4067 16.0441C61.2724 16.571 62.8995 17.6322 64.3187 18.9297C64.3727 18.9781 64.4268 19.0265 64.4808 19.0749C64.7517 19.3183 65.0107 19.5637 65.246 19.8426C65.4472 20.0771 65.6706 20.2871 65.9048 20.4883C66.0756 20.6353 66.2351 20.79 66.3935 20.9503C66.6159 21.1745 66.8452 21.3833 67.0851 21.5883C67.1438 21.6396 67.2024 21.691 67.2609 21.7425C70.0118 24.1534 73.1986 26.212 76.9803 26.0549C77.9941 25.9772 78.9689 25.6403 79.8531 25.1509C79.9087 25.1215 79.9642 25.092 80.0215 25.0616C80.8544 24.6025 81.6521 23.925 82.2471 23.1835C82.2868 23.1347 82.3264 23.0858 82.3672 23.0354C85.5177 19.0866 85.9585 13.5632 85.525 4.9602C85.3755 3.65443 85.1688 2.35823 84.9216 1.06757C84.9139 1.02744 84.9063 0.98731 84.8984 0.945965C84.8777 0.838515 84.8568 0.731116 84.8359 0.623721C84.7991 0.416026 84.772 0.209462 84.7475 0Z" fill="#0068F7"/>
<path d="M25.0839 71.2318C25.1262 71.2319 25.1685 71.2319 25.212 71.2319C25.8732 71.2336 26.4944 71.2777 27.1321 71.4645C27.1675 71.4742 27.203 71.4838 27.2395 71.4938C27.9634 71.6934 28.6399 72.0333 29.2069 72.5279C29.2751 72.5865 29.2751 72.5865 29.3446 72.6463C29.5866 72.8587 29.8085 73.0704 30.0049 73.3255C30.1764 73.2519 30.2705 73.171 30.3872 73.0264C31.3062 71.948 32.7166 71.3562 34.1133 71.2421C34.3897 71.2269 34.6658 71.2262 34.9425 71.2285C34.9841 71.2287 35.0258 71.2288 35.0687 71.229C35.7219 71.2328 36.346 71.2703 36.9741 71.4645C37.0112 71.4759 37.0484 71.4873 37.0867 71.499C38.7284 72.022 40.1791 73.2389 40.9824 74.7654C41.0699 74.9391 41.1509 75.1153 41.2301 75.293C41.2685 75.3771 41.2685 75.3771 41.3078 75.4629C41.7216 76.443 41.74 77.4598 41.7364 78.5072C41.7367 78.651 41.737 78.7949 41.7375 78.9388C41.7385 79.2863 41.7383 79.6338 41.7376 79.9813C41.7372 80.2638 41.7371 80.5463 41.7373 80.8288C41.7374 80.8693 41.7374 80.9097 41.7374 80.9514C41.7375 81.0335 41.7376 81.1157 41.7376 81.1979C41.7382 81.9651 41.7375 82.7324 41.7364 83.4996C41.7354 84.157 41.7356 84.8143 41.7366 85.4716C41.7377 86.2372 41.7382 87.0028 41.7375 87.7684C41.7375 87.8501 41.7374 87.9318 41.7373 88.0135C41.7373 88.0737 41.7373 88.0737 41.7372 88.1352C41.737 88.4174 41.7374 88.6997 41.7379 88.9819C41.7385 89.3257 41.7383 89.6695 41.7372 90.0133C41.7366 90.1885 41.7365 90.3637 41.7371 90.5389C41.7377 90.7291 41.7369 90.9193 41.7359 91.1095C41.7366 91.1918 41.7366 91.1918 41.7373 91.2757C41.7314 91.8228 41.5608 92.235 41.1854 92.632C40.741 93.0255 40.2063 93.0395 39.6426 93.0117C39.3894 92.9852 39.1986 92.8807 38.9957 92.7338C38.961 92.7101 38.9263 92.6863 38.8905 92.6619C38.4687 92.3408 38.3274 91.9107 38.2509 91.4044C38.237 91.2069 38.2365 91.0102 38.2375 90.8122C38.2372 90.7263 38.2372 90.7263 38.237 90.6386C38.2366 90.4479 38.2369 90.2572 38.2373 90.0664C38.2371 89.9292 38.2369 89.7919 38.2367 89.6547C38.2362 89.3596 38.2361 89.0646 38.2363 88.7696C38.2364 88.3423 38.2358 87.9151 38.2349 87.4878C38.2336 86.7934 38.2325 86.0991 38.2318 85.4047C38.2317 85.3632 38.2317 85.3217 38.2317 85.279C38.2311 84.6903 38.2308 84.1015 38.2306 83.5128C38.2306 83.4506 38.2306 83.4507 38.2306 83.3872C38.2306 83.3458 38.2306 83.3044 38.2306 83.2618C38.2304 82.5701 38.2293 81.8784 38.2277 81.1867C38.2267 80.7608 38.2263 80.3349 38.2269 79.909C38.2273 79.5823 38.2266 79.2556 38.2254 78.9288C38.2252 78.7952 38.2252 78.6617 38.2257 78.5281C38.2386 77.5798 38.2386 77.5798 37.9849 76.6755C37.9636 76.6257 37.9424 76.576 37.9205 76.5248C37.7948 76.2424 37.6324 76.0254 37.4186 75.8031C37.3465 75.7183 37.3465 75.7183 37.3465 75.612C37.3158 75.5981 37.2851 75.5842 37.2536 75.5698C37.1262 75.5017 37.0279 75.4225 36.9175 75.3295C36.176 74.7444 35.3289 74.6942 34.4205 74.7612C34.1762 74.7971 33.9539 74.8728 33.7289 74.9739C33.6869 74.9926 33.6449 75.0112 33.6017 75.0304C32.8228 75.4224 32.2508 76.0902 31.9742 76.9142C31.7551 77.6697 31.7993 78.4698 31.8018 79.248C31.8018 79.3832 31.8018 79.5185 31.8017 79.6538C31.8016 79.9438 31.8018 80.2337 31.8023 80.5236C31.803 80.9824 31.8026 81.4412 31.802 81.9C31.8018 82.0575 31.8017 82.2149 31.8015 82.3723C31.8014 82.4117 31.8014 82.451 31.8013 82.4915C31.8009 82.9378 31.8006 83.384 31.8004 83.8303C31.8004 83.871 31.8004 83.9117 31.8004 83.9537C31.8002 84.6144 31.8008 85.2751 31.8016 85.9359C31.8024 86.6161 31.8019 87.2963 31.8005 87.9765C31.7996 88.3951 31.7997 88.8137 31.8012 89.2323C31.8022 89.5532 31.8015 89.874 31.8003 90.1949C31.8 90.3261 31.8003 90.4573 31.8012 90.5884C31.8063 91.3985 31.797 91.9712 31.2384 92.6008C30.8658 92.935 30.5473 93.0173 30.0547 93.0229C29.9944 93.0237 29.9944 93.0237 29.9329 93.0246C29.4181 93.0165 29.1085 92.8327 28.7389 92.4825C28.2665 91.9952 28.2411 91.4254 28.2423 90.7806C28.2422 90.7237 28.242 90.6668 28.2419 90.6082C28.2416 90.4178 28.2417 90.2275 28.2417 90.0371C28.2415 89.9005 28.2414 89.7638 28.2411 89.6272C28.2407 89.3331 28.2405 89.0389 28.2403 88.7448C28.24 88.2793 28.2391 87.8138 28.2381 87.3483C28.2377 87.1888 28.2374 87.0294 28.2371 86.8699C28.237 86.83 28.2369 86.7902 28.2368 86.7491C28.2359 86.2958 28.235 85.8425 28.2342 85.3892C28.2341 85.3478 28.2341 85.3064 28.234 85.2637C28.2328 84.5932 28.2322 83.9228 28.2318 83.2523C28.2314 82.5628 28.2302 81.8734 28.2282 81.1839C28.2271 80.7593 28.2265 80.3347 28.2269 79.9101C28.2271 79.5841 28.2261 79.2581 28.2248 78.9321C28.2244 78.7989 28.2244 78.6657 28.2248 78.5325C28.2276 77.4717 28.1474 76.527 27.3897 75.7032C26.6011 74.97 25.8161 74.7252 24.7647 74.7448C24.0038 74.7761 23.2409 75.1028 22.7165 75.6652C22.133 76.3457 21.8482 77.0532 21.8512 77.9448C21.8509 78.0019 21.8507 78.059 21.8504 78.1177C21.8498 78.3083 21.8499 78.4989 21.85 78.6895C21.8497 78.8264 21.8493 78.9632 21.8489 79.1001C21.8481 79.3947 21.8476 79.6892 21.8474 79.9837C21.8471 80.4102 21.8461 80.8366 21.8449 81.2631C21.843 81.9559 21.8415 82.6487 21.8403 83.3415C21.8403 83.3829 21.8402 83.4244 21.8401 83.4671C21.8396 83.761 21.8391 84.055 21.8387 84.349C21.8381 84.6846 21.8375 85.0201 21.837 85.3557C21.8369 85.397 21.8368 85.4383 21.8367 85.4809C21.8356 86.171 21.8339 86.8611 21.832 87.5512C21.8309 87.9764 21.8301 88.4015 21.8298 88.8267C21.8296 89.1528 21.8288 89.4788 21.8278 89.8049C21.8275 89.9384 21.8274 90.0718 21.8274 90.2052C21.8275 90.3878 21.8269 90.5703 21.8262 90.7529C21.8263 90.8053 21.8265 90.8577 21.8267 90.9117C21.8228 91.4895 21.7561 92.0065 21.3865 92.4679C20.999 92.8418 20.6019 93.0301 20.0631 93.0229C20.0207 93.0225 19.9784 93.022 19.9347 93.0216C19.3931 93.006 19.0466 92.8031 18.6733 92.4147C18.367 92.0201 18.3384 91.6687 18.3398 91.1863C18.3396 91.1266 18.3393 91.0669 18.3391 91.0055C18.3384 90.8054 18.3385 90.6053 18.3386 90.4052C18.3383 90.2618 18.3379 90.1184 18.3375 89.9749C18.3366 89.6255 18.3363 89.2761 18.3363 88.9267C18.3362 88.6423 18.336 88.3578 18.3357 88.0734C18.3347 87.2656 18.3342 86.4578 18.3343 85.65C18.3343 85.6065 18.3343 85.563 18.3343 85.5181C18.3343 85.4745 18.3343 85.4309 18.3343 85.386C18.3344 84.6814 18.3334 83.9767 18.3319 83.272C18.3303 82.5471 18.3296 81.8222 18.3297 81.0973C18.3297 80.6909 18.3295 80.2845 18.3283 79.8781C18.3273 79.5317 18.3271 79.1852 18.3278 78.8388C18.3282 78.6624 18.3281 78.4861 18.3273 78.3098C18.3182 76.2284 18.8888 74.5986 20.3624 73.1029C21.665 71.8142 23.2593 71.2274 25.0839 71.2318Z" fill="white"/>
<path d="M77.0935 71.3353C77.5393 71.5843 77.8782 71.9381 78.0469 72.4224C78.116 72.6708 78.1125 72.9146 78.1115 73.171C78.1117 73.2242 78.1119 73.2774 78.1121 73.3322C78.1127 73.51 78.1124 73.6879 78.1122 73.8658C78.1125 73.9935 78.1127 74.1212 78.1131 74.2489C78.1137 74.5598 78.1138 74.8706 78.1137 75.1815C78.1136 75.4346 78.1137 75.6877 78.1139 75.9408C78.114 75.9768 78.114 76.0129 78.114 76.0501C78.1141 76.1235 78.1142 76.1968 78.1142 76.2702C78.1148 76.9579 78.1147 77.6456 78.1144 78.3333C78.1141 78.9603 78.1147 79.5872 78.1157 80.2142C78.1167 80.8595 78.1172 81.5048 78.117 82.1502C78.1169 82.5118 78.117 82.8735 78.1178 83.2351C78.1184 83.576 78.1183 83.9168 78.1176 84.2576C78.1175 84.3819 78.1176 84.5062 78.1181 84.6305C78.1211 85.5509 78.0816 86.4756 77.8017 87.3604C77.7817 87.4248 77.7817 87.4248 77.7612 87.4905C77.3652 88.7026 76.6957 89.7021 75.81 90.6073C75.7532 90.669 75.7532 90.669 75.6953 90.7319C74.75 91.7349 73.4997 92.3987 72.1858 92.7741C72.149 92.7847 72.1122 92.7953 72.0743 92.8062C71.4463 92.9763 70.8256 93.0187 70.1785 93.0169C70.052 93.0167 69.9256 93.018 69.799 93.0193C69.0509 93.0224 68.3338 92.9192 67.6172 92.6977C67.5508 92.6772 67.5508 92.6772 67.4831 92.6564C65.4252 91.9981 63.7472 90.4024 62.755 88.5111C61.8174 86.6452 61.7108 84.3517 62.3623 82.3766C62.7866 81.1706 63.5031 80.2037 64.372 79.2814C64.4069 79.2436 64.4418 79.2059 64.4778 79.1669C65.7387 77.8473 67.6116 76.9768 69.4401 76.9226C69.6186 76.9199 69.797 76.9196 69.9755 76.921C70.1105 76.9218 70.2455 76.921 70.3805 76.92C71.8421 76.9181 73.2298 77.2479 74.4268 78.1116C74.4795 78.1467 74.5322 78.1818 74.5864 78.2179C74.5866 78.1493 74.5868 78.0806 74.587 78.0099C74.589 77.3614 74.5921 76.7129 74.5962 76.0644C74.5983 75.731 74.6 75.3976 74.6008 75.0643C74.6017 74.7422 74.6035 74.4202 74.606 74.0982C74.6068 73.9757 74.6072 73.8531 74.6073 73.7306C74.6074 73.5582 74.6088 73.386 74.6106 73.2137C74.6102 73.1385 74.6102 73.1385 74.6098 73.0618C74.6174 72.5701 74.762 72.1063 75.0733 71.7196C75.5795 71.2297 76.4329 71.0633 77.0935 71.3353ZM68.5216 80.6639C68.4743 80.6793 68.427 80.6946 68.3782 80.7104C67.7712 80.9235 67.2776 81.3416 66.8192 81.7805C66.7853 81.8117 66.7515 81.8428 66.7166 81.8748C65.9992 82.5536 65.4767 83.6066 65.436 84.5987C65.4333 84.6597 65.4305 84.7207 65.4277 84.7836C65.3869 86.1457 65.8811 87.2266 66.7768 88.2409C67.352 88.851 68.0377 89.2581 68.8408 89.4907C68.8939 89.506 68.8939 89.506 68.9481 89.5217C70.096 89.8157 71.2931 89.59 72.3066 89.0176C73.4493 88.3378 74.1922 87.3122 74.544 86.0483C74.8284 84.8851 74.6106 83.7018 74.0012 82.6845C73.4263 81.7592 72.5698 81.0559 71.554 80.6639C71.4978 80.6419 71.4416 80.6199 71.3836 80.5972C70.4928 80.3055 69.3967 80.3368 68.5216 80.6639Z" fill="white"/>
<path d="M52.2192 76.9219C52.2614 76.922 52.3036 76.922 52.3471 76.922C53.0072 76.9241 53.6279 76.9658 54.2641 77.1546C54.3041 77.166 54.3442 77.1774 54.3855 77.1891C55.5588 77.5288 56.6397 78.1063 57.5625 78.9093C57.6137 78.9534 57.6649 78.9976 57.7177 79.043C58.454 79.6897 59.0045 80.4531 59.4478 81.322C59.4653 81.3561 59.4829 81.3903 59.501 81.4254C59.7578 81.9458 59.7969 82.4148 59.6323 82.9731C59.5693 83.1519 59.4915 83.2821 59.3713 83.429C59.3493 83.4577 59.3274 83.4863 59.3048 83.5158C59.1099 83.7421 58.8801 83.8722 58.6144 84.0012C58.577 84.0197 58.5396 84.0381 58.501 84.0571C58.1316 84.2373 57.7571 84.4054 57.3808 84.5705C57.2153 84.6431 57.0501 84.7162 56.8849 84.7892C56.798 84.8276 56.7111 84.866 56.6242 84.9043C56.1604 85.1089 55.6976 85.3156 55.235 85.5227C55.1933 85.5413 55.1517 85.56 55.1087 85.5792C54.8957 85.6746 54.6826 85.77 54.4696 85.8654C54.2964 85.943 54.1231 86.0206 53.9498 86.0981C52.3272 86.8236 50.7143 87.5692 49.1037 88.3209C49.3586 88.8632 50.0043 89.1304 50.5401 89.3312C51.6706 89.7294 53.0259 89.6865 54.114 89.1885C55.2524 88.6379 56.1183 87.7293 56.5488 86.5328C56.564 86.489 56.5792 86.4452 56.5949 86.4001C56.7499 86.0049 57.0417 85.658 57.4262 85.4695C57.9274 85.3049 58.6227 85.3003 59.0997 85.5358C59.547 85.8286 59.8151 86.2378 59.9355 86.7588C60.0861 87.6667 59.4697 88.7589 58.9723 89.4908C58.8938 89.5981 58.814 89.7045 58.7329 89.8098C58.694 89.8604 58.6551 89.9111 58.615 89.9633C57.2912 91.6307 55.3094 92.7328 53.2001 93.0002C53.0616 93.0067 52.9244 93.0113 52.7859 93.0129C52.7471 93.0134 52.7083 93.0139 52.6683 93.0144C50.3544 93.0392 48.3645 92.4203 46.6788 90.7865C46.6128 90.7229 46.5455 90.6607 46.478 90.5987C45.0719 89.2727 44.2502 87.334 44.1941 85.4149C44.1789 84.6391 44.1867 83.8681 44.3689 83.11C44.378 83.0719 44.3871 83.0338 44.3965 82.9946C44.9237 80.8833 46.4158 79.0578 48.2658 77.9422C48.8559 77.5991 49.4718 77.3512 50.1278 77.1645C50.1642 77.1542 50.2005 77.1438 50.238 77.1331C50.894 76.9577 51.5443 76.9202 52.2192 76.9219ZM49.3165 81.5148C49.2878 81.541 49.2592 81.5671 49.2296 81.5941C48.402 82.3572 47.7682 83.2846 47.6673 84.4393C47.6603 84.6524 47.6617 84.8642 47.6673 85.0774C48.3535 84.7866 49.0357 84.4885 49.714 84.1797C49.9566 84.0692 50.1994 83.9592 50.4422 83.8492C50.4911 83.827 50.54 83.8049 50.5904 83.782C51.0514 83.5734 51.5138 83.3679 51.9765 83.1631C52.705 82.8406 53.4317 82.5143 54.1577 82.1861C54.207 82.1638 54.2564 82.1415 54.3072 82.1185C54.4469 82.0554 54.5866 81.9922 54.7263 81.9289C54.7679 81.9101 54.8096 81.8912 54.8526 81.8718C54.9105 81.8456 54.9105 81.8456 54.9696 81.8188C55.003 81.8036 55.0365 81.7885 55.0709 81.7729C55.1754 81.7242 55.2784 81.6731 55.3813 81.6211C54.8845 80.9635 54.0882 80.6213 53.2913 80.4783C51.8427 80.2948 50.4163 80.4944 49.3165 81.5148Z" fill="white"/>
<path d="M7.96682 76.9183C8.02928 76.9185 8.02928 76.9185 8.093 76.9188C8.76528 76.923 9.40578 76.9665 10.0549 77.1542C10.0981 77.1665 10.1413 77.1787 10.1858 77.1914C11.1749 77.4824 12.1087 77.9649 12.9277 78.5899C12.977 78.6274 13.0263 78.6649 13.0771 78.7035C14.0723 79.4894 15.2202 80.7078 15.4813 81.993C15.5427 82.5493 15.4457 83.033 15.1083 83.4827C14.7162 83.8738 14.2377 84.0777 13.739 84.2994C13.6565 84.3365 13.5739 84.3737 13.4914 84.411C13.2329 84.5274 12.9739 84.6427 12.7149 84.758C12.6318 84.7951 12.5486 84.8321 12.4655 84.8692C12.0625 85.0489 11.6593 85.228 11.2559 85.4067C9.6621 86.1123 8.07628 86.8351 6.49415 87.5665C5.94438 87.8204 5.39305 88.0709 4.84132 88.3206C5.4502 89.065 6.2888 89.4321 7.23532 89.5436C8.62254 89.6442 9.80021 89.4055 10.9061 88.5333C10.9457 88.5031 10.9853 88.4728 11.026 88.4417C11.7151 87.8776 12.0671 87.0944 12.413 86.2971C12.5913 85.9074 12.8289 85.6354 13.2295 85.4671C13.4739 85.3806 13.7042 85.3695 13.9618 85.3728C14.0064 85.3732 14.051 85.3736 14.0969 85.374C14.42 85.3827 14.6795 85.4196 14.9493 85.6088C14.9822 85.6301 15.015 85.6514 15.0489 85.6734C15.3758 85.9158 15.6211 86.3244 15.6941 86.7254C15.7875 87.4026 15.55 87.9315 15.2685 88.5333C15.2515 88.5701 15.2344 88.607 15.2169 88.645C14.3339 90.5163 12.5673 91.9126 10.646 92.611C9.82204 92.901 9.00303 93.0277 8.13138 93.0206C8.00674 93.0198 7.88219 93.0206 7.75755 93.0216C5.93677 93.0242 4.18166 92.3434 2.81972 91.1388C2.79368 91.1159 2.76764 91.0931 2.7408 91.0696C1.42663 89.9135 0.487819 88.4418 0.106521 86.7254C0.0965773 86.6816 0.0866335 86.6378 0.0763883 86.5927C-0.0185861 86.1119 -0.019682 85.6316 -0.0195951 85.1434C-0.0198261 84.999 -0.0217595 84.8546 -0.0237773 84.7102C-0.0377428 82.5409 0.93477 80.7221 2.41407 79.1914C3.92426 77.7166 5.85353 76.9004 7.96682 76.9183ZM4.41572 82.1525C3.80398 82.8922 3.38666 83.8908 3.4016 84.861C3.4027 84.933 3.40381 85.005 3.40492 85.077C3.90901 84.8931 4.39422 84.68 4.8802 84.4535C5.09738 84.3524 5.31494 84.252 5.53251 84.1517C5.59935 84.1209 5.59935 84.1209 5.66754 84.0894C6.1118 83.8849 6.55854 83.6861 7.0059 83.4885C7.82026 83.1286 8.63193 82.7629 9.44264 82.3948C9.98183 82.1502 10.5225 81.9095 11.0657 81.6739C11.0823 81.5152 11.0823 81.5152 10.9909 81.4207C10.0426 80.549 8.8918 80.3999 7.64991 80.431C6.36278 80.4872 5.25498 81.2107 4.41572 82.1525Z" fill="white"/>
<path d="M54.7469 7.65328C59.1555 7.57345 63.4885 8.48513 68.1657 10.0828C68.2285 10.1048 68.2913 10.1268 68.356 10.1495C68.4409 10.18 68.4409 10.18 68.5276 10.2112C68.5768 10.2289 68.6261 10.2465 68.6768 10.2647C68.7875 10.3155 68.7875 10.3155 68.8407 10.4218C68.4697 10.3596 68.1049 10.2817 67.7395 10.1927C65.7762 9.71557 63.7744 9.38951 61.7618 9.21213C61.7261 9.20898 61.6903 9.20582 61.6535 9.20258C61.4071 9.18126 61.1606 9.16256 60.9139 9.14566C60.8582 9.1418 60.8582 9.1418 60.8013 9.13786C60.0367 9.08678 59.2727 9.0818 58.5066 9.08252C58.4432 9.08255 58.3798 9.08258 58.3144 9.08261C57.3323 9.08396 56.3591 9.10215 55.3811 9.19883C55.3465 9.20219 55.3118 9.20555 55.2761 9.20901C50.7913 9.64556 46.1591 10.9315 41.5491 14.5693C41.5065 14.6059 41.464 14.6425 41.4201 14.6802C40.7438 15.2732 40.0973 15.9048 39.5807 16.6431C39.5588 16.6742 39.5368 16.7053 39.5141 16.7373C37.4859 19.6222 37.1909 23.2676 37.7622 26.6638C38.1693 28.9647 38.9108 31.1728 39.8999 33.2863C39.9257 33.3419 39.9515 33.3975 39.978 33.4548C40.8437 35.318 41.8775 37.0704 43.0387 38.7632C43.0669 38.8043 43.095 38.8454 43.124 38.8878C44.1135 40.3278 45.2131 41.7113 46.3889 43.0041C46.4829 43.1081 46.5749 43.2133 46.6663 43.3194C47.2028 43.9332 47.7741 44.5152 48.3513 45.0903C48.4597 45.1984 48.5678 45.3067 48.6758 45.415C48.7462 45.4853 48.8166 45.5556 48.887 45.6258C48.9185 45.6575 48.9501 45.6891 48.9826 45.7217C49.1791 45.917 49.3821 46.1021 49.592 46.2829C49.7398 46.4113 49.8818 46.5455 50.0246 46.6793C50.2796 46.9165 50.5413 47.1413 50.813 47.3594C50.9876 47.5016 51.1577 47.6485 51.328 47.796C51.6595 48.0816 51.9988 48.3552 52.3456 48.6222C52.424 48.6826 52.5023 48.7431 52.5805 48.8038C53.1867 49.2739 53.8007 49.7262 54.4388 50.1521C54.5717 50.2409 54.7042 50.3301 54.8367 50.4195C55.9836 51.1926 57.1491 51.9192 58.3603 52.5882C58.4113 52.6164 58.4622 52.6447 58.5147 52.6737C59.7989 53.3838 61.1064 54.0344 62.4567 54.6088C62.3647 54.9318 62.2094 55.2213 62.0577 55.5194C62.0312 55.5719 62.0046 55.6245 61.9773 55.6787C61.928 55.7762 61.8787 55.8737 61.8292 55.9712C61.772 56.084 61.7152 56.1971 61.6587 56.3103C61.17 56.1299 60.6969 55.9276 60.2257 55.7055C60.1918 55.6896 60.1579 55.6737 60.1229 55.6573C58.9604 55.1114 57.8119 54.5442 56.7012 53.8982C56.5456 53.8078 56.3895 53.7182 56.2334 53.6288C53.6565 52.1473 51.1991 50.4241 48.935 48.4982C48.7551 48.3454 48.5729 48.1961 48.3886 48.0485C48.1219 47.8318 47.8703 47.6012 47.6204 47.3655C47.4621 47.2164 47.302 47.0702 47.1378 46.9275C46.5347 46.403 45.9653 45.841 45.3995 45.2769C45.3503 45.228 45.3012 45.1791 45.2506 45.1288C45.0127 44.8905 44.7824 44.6495 44.5631 44.3941C44.4086 44.2168 44.2449 44.0481 44.0828 43.8778C43.8166 43.5961 43.5616 43.3106 43.3201 43.0073C43.2014 42.8613 43.0787 42.72 42.9542 42.5789C42.5845 42.1593 42.2411 41.7243 41.9059 41.2768C41.8126 41.1525 41.7184 41.0288 41.6241 40.9052C40.917 39.9752 40.2403 39.026 39.6448 38.0202C39.583 37.9162 39.5203 37.8129 39.4573 37.7097C39.1468 37.2004 38.8542 36.682 38.5699 36.1577C38.5453 36.1125 38.5207 36.0672 38.4953 36.0207C36.1709 31.7307 34.8556 26.7499 36.0695 20.0993C36.698 18.0244 37.7367 16.1908 39.1019 14.5162C39.1359 14.4738 39.1359 14.4738 39.1706 14.4307C39.5303 13.9852 39.9254 13.5758 40.3288 13.1702C40.3773 13.1213 40.4257 13.0725 40.4755 13.0221C40.7994 12.6999 41.1384 12.4075 41.4959 12.1234C41.5621 12.0689 41.6281 12.0143 41.694 11.9595C42.19 11.5521 42.7101 11.1915 43.2515 10.8472C43.2847 10.826 43.3178 10.8049 43.352 10.7831C46.7386 8.64072 50.7756 7.73891 54.7469 7.65328Z" fill="#9CBE4D"/>
<path d="M78.8233 10.9459C79.9811 12.0087 80.5466 13.4293 80.6661 14.9756C80.7061 16.4088 80.2057 17.7983 79.2679 18.8764C79.2425 18.9087 79.2172 18.9411 79.191 18.9744C78.3493 20.032 76.9434 20.636 75.637 20.8072C74.1323 20.9748 72.6443 20.5586 71.4442 19.6341C70.2832 18.6649 69.5235 17.4126 69.3195 15.8987C69.202 14.2038 69.575 12.6868 70.7027 11.3789C71.7015 10.2385 73.1141 9.57332 74.6236 9.47012C76.1892 9.40067 77.6486 9.91078 78.8233 10.9459Z" fill="#0068F7"/>
<path d="M119.86 72.9537C120.098 73.0563 120.222 73.1895 120.347 73.4164C120.445 73.6836 120.422 73.9733 120.421 74.2545C120.421 74.3268 120.422 74.3992 120.422 74.4715C120.424 74.667 120.424 74.8625 120.424 75.0581C120.424 75.2627 120.426 75.4674 120.427 75.6721C120.429 76.0592 120.43 76.4464 120.431 76.8336C120.432 77.2745 120.434 77.7155 120.436 78.1564C120.44 79.0631 120.443 79.9698 120.445 80.8765C120.47 80.857 120.495 80.8376 120.522 80.8175C120.638 80.7278 120.755 80.6382 120.872 80.5485C120.912 80.5179 120.951 80.4873 120.992 80.4558C122.771 79.0928 124.698 78.4444 126.952 78.6601C127.254 78.7027 127.546 78.7718 127.84 78.8559C127.874 78.865 127.909 78.8741 127.944 78.8835C129.705 79.3535 131.194 80.6542 132.096 82.2058C133.08 83.9136 133.246 85.9712 132.758 87.8632C132.245 89.714 130.914 91.2565 129.263 92.2007C128.815 92.4478 128.348 92.6269 127.86 92.774C127.807 92.7899 127.807 92.7899 127.754 92.8061C127.122 92.9869 126.501 93.0217 125.848 93.0199C125.806 93.0199 125.763 93.0199 125.72 93.0198C123.729 93.0126 122.054 92.2992 120.632 90.9015C119.06 89.3064 118.557 87.3411 118.561 85.1645C118.561 85.0382 118.561 84.912 118.56 84.7858C118.559 84.4463 118.559 84.1069 118.56 83.7675C118.56 83.5551 118.56 83.3427 118.559 83.1303C118.559 83.0949 118.559 83.0594 118.559 83.0229C118.559 82.9509 118.559 82.8788 118.559 82.8068C118.558 82.1347 118.559 81.4627 118.559 80.7906C118.56 80.1765 118.559 79.5624 118.558 78.9483C118.557 78.3157 118.556 77.6831 118.556 77.0504C118.557 76.6961 118.556 76.3417 118.556 75.9873C118.555 75.6548 118.555 75.3222 118.556 74.9896C118.556 74.8677 118.556 74.7458 118.555 74.6238C118.555 74.4573 118.555 74.2908 118.556 74.1243C118.556 74.0762 118.555 74.0281 118.555 73.9785C118.559 73.5963 118.656 73.3129 118.922 73.0335C119.23 72.9061 119.531 72.9159 119.86 72.9537ZM121.665 82.3222C120.94 83.1651 120.433 84.2745 120.392 85.3962C120.389 85.4655 120.386 85.5347 120.383 85.606C120.343 87.1392 120.842 88.4727 121.881 89.5969C121.913 89.6328 121.946 89.6686 121.979 89.7056C122.781 90.558 124.012 91.1889 125.188 91.2547C126.257 91.274 127.179 91.2404 128.159 90.7667C128.208 90.7433 128.257 90.7198 128.307 90.6957C129.577 90.0478 130.612 88.7812 131.048 87.4368C131.08 87.3242 131.11 87.2112 131.138 87.0978C131.15 87.0503 131.162 87.0028 131.174 86.9538C131.46 85.5803 131.179 84.1033 130.423 82.9293C130.22 82.6328 129.976 82.3758 129.723 82.1219C129.656 82.0538 129.591 81.9839 129.526 81.9138C128.751 81.0931 127.583 80.5052 126.448 80.4417C124.514 80.4067 123.022 80.8719 121.665 82.3222Z" fill="white"/>
<path d="M89.4825 72.9541C89.73 73.0757 89.8905 73.2381 90.0145 73.4859C90.0195 73.599 90.021 73.7124 90.0209 73.8257C90.0209 73.8608 90.021 73.896 90.021 73.9323C90.0211 74.0511 90.0208 74.1699 90.0205 74.2887C90.0205 74.3749 90.0205 74.4612 90.0206 74.5474C90.0206 74.779 90.0203 75.0106 90.0199 75.2421C90.0196 75.4592 90.0196 75.6763 90.0195 75.8934C90.0193 76.5288 90.0185 77.1641 90.0178 77.7995C90.0167 79.2187 90.0156 80.6378 90.0145 82.0999C93.0868 82.0999 96.1591 82.0999 99.3245 82.0999C99.3203 79.3319 99.3203 79.3319 99.3149 76.5638C99.3144 76.0286 99.3144 76.0286 99.3143 75.7781C99.3142 75.603 99.3138 75.428 99.3133 75.2529C99.3125 75.0296 99.3123 74.8062 99.3125 74.5829C99.3124 74.5009 99.3122 74.419 99.3118 74.3371C99.3113 74.2263 99.3114 74.1155 99.3117 74.0047C99.3116 73.9427 99.3115 73.8806 99.3114 73.8167C99.3377 73.4731 99.4391 73.2867 99.6969 73.0605C99.8908 72.9313 99.9916 72.9382 100.222 72.9375C100.319 72.9362 100.319 72.9362 100.418 72.9348C100.682 72.9627 100.814 73.0529 100.987 73.2499C101.129 73.4482 101.14 73.5507 101.14 73.7937C101.141 73.8596 101.141 73.9256 101.141 73.9935C101.141 74.0674 101.141 74.1413 101.141 74.2151C101.141 74.2931 101.142 74.371 101.142 74.449C101.142 74.6639 101.142 74.8789 101.143 75.0939C101.143 75.3254 101.143 75.557 101.144 75.7885C101.145 76.3481 101.145 76.9077 101.146 77.4672C101.146 77.7306 101.146 77.9939 101.147 78.2572C101.148 79.1323 101.148 80.0074 101.149 80.8824C101.149 81.1096 101.149 81.3368 101.149 81.564C101.149 81.6204 101.149 81.6769 101.149 81.7351C101.15 82.6502 101.151 83.5653 101.153 84.4804C101.154 85.4193 101.155 86.3582 101.155 87.2971C101.156 87.8245 101.156 88.3519 101.157 88.8793C101.159 89.3284 101.159 89.7775 101.158 90.2266C101.158 90.4558 101.158 90.685 101.159 90.9142C101.16 91.124 101.16 91.3338 101.159 91.5436C101.159 91.6195 101.16 91.6955 101.16 91.7714C101.166 92.4755 101.166 92.4755 100.921 92.7346C100.634 92.9869 100.454 93.0257 100.076 93.022C99.8194 92.9887 99.6463 92.881 99.4841 92.6814C99.3562 92.4226 99.3046 92.2364 99.3053 91.9435C99.3052 91.9087 99.305 91.8739 99.3049 91.8381C99.3046 91.7223 99.3055 91.6066 99.3064 91.4908C99.3064 91.4061 99.3064 91.3214 99.3063 91.2367C99.3063 91.0106 99.3072 90.7844 99.3083 90.5583C99.3092 90.3458 99.3093 90.1334 99.3094 89.9209C99.3102 89.3001 99.3125 88.6794 99.3145 88.0586C99.3178 86.6713 99.3211 85.284 99.3245 83.8546C96.2522 83.8546 93.1799 83.8546 90.0145 83.8546C90.0229 86.6577 90.0229 86.6577 90.0337 89.4607C90.0346 90.0027 90.0346 90.0027 90.0348 90.2563C90.035 90.4336 90.0358 90.6109 90.037 90.7882C90.0384 91.0143 90.0389 91.2405 90.0386 91.4667C90.0386 91.5497 90.039 91.6326 90.0399 91.7156C90.0409 91.8278 90.0407 91.9399 90.0401 92.0522C90.0403 92.115 90.0405 92.1778 90.0407 92.2426C89.9995 92.5149 89.8653 92.6786 89.6621 92.8575C89.3904 93.0504 89.1162 93.0443 88.7909 93.0004C88.556 92.8845 88.4033 92.7384 88.2589 92.5219C88.2061 92.3244 88.199 92.1376 88.1987 91.9338C88.1985 91.8687 88.1983 91.8036 88.1981 91.7366C88.1981 91.6645 88.1982 91.5924 88.1982 91.5204C88.1981 91.4437 88.1979 91.367 88.1978 91.2903C88.1973 91.0795 88.1972 90.8688 88.1972 90.658C88.1971 90.4307 88.1967 90.2034 88.1963 89.9761C88.1956 89.4791 88.1953 88.982 88.1951 88.485C88.1949 88.1747 88.1947 87.8644 88.1944 87.5541C88.1938 86.6949 88.1932 85.8358 88.1931 84.9766C88.1931 84.9217 88.193 84.8667 88.193 84.81C88.193 84.7274 88.193 84.7274 88.193 84.643C88.193 84.5313 88.1929 84.4197 88.1929 84.308C88.1929 84.2526 88.1929 84.1972 88.1929 84.1401C88.1927 83.2423 88.1917 82.3445 88.1905 81.4467C88.1892 80.5249 88.1886 79.6032 88.1885 78.6815C88.1885 78.1639 88.1882 77.6464 88.1872 77.1288C88.1864 76.6882 88.1861 76.2476 88.1865 75.8069C88.1868 75.5821 88.1867 75.3573 88.186 75.1325C88.1853 74.9266 88.1853 74.7207 88.186 74.5149C88.1861 74.4405 88.1859 74.3661 88.1855 74.2917C88.1805 73.4363 88.1805 73.4363 88.4395 73.1331C88.7142 72.8685 89.1289 72.904 89.4825 72.9541Z" fill="white"/>
<path d="M96.0261 35.626C96.1766 35.7545 96.228 35.8728 96.2891 36.0595C96.3078 36.1162 96.3264 36.173 96.3456 36.2315C96.3751 36.325 96.3751 36.325 96.4051 36.4203C96.4362 36.5183 96.4362 36.5183 96.4679 36.6184C96.9825 38.2663 97.3682 39.9658 97.5157 41.6877C97.5245 41.7804 97.5245 41.7804 97.5335 41.8749C97.8574 45.9128 96.8362 50.0283 94.2173 53.1731C94.1947 53.2005 94.1721 53.2279 94.1488 53.2561C93.6201 53.8949 93.051 54.5077 92.4085 55.0342C92.3824 55.0559 92.3564 55.0777 92.3295 55.1001C88.8283 58.0146 84.2848 59.3391 79.8001 59.6603C79.7478 59.6641 79.7478 59.6641 79.6944 59.6679C78.9829 59.7177 78.2721 59.7242 77.559 59.7234C77.5005 59.7234 77.442 59.7234 77.3818 59.7233C76.4103 59.7219 75.448 59.6961 74.4801 59.6071C74.444 59.6039 74.4079 59.6006 74.3708 59.5973C71.5722 59.3456 68.0381 59.0198 65.4893 57.746C65.5776 57.5255 65.7372 57.3703 65.8982 57.201C65.956 57.1394 66.0138 57.0778 66.0715 57.0162C66.0995 56.9864 66.1274 56.9566 66.1562 56.926C66.2849 56.7873 66.4086 56.6446 66.5319 56.501C66.5565 56.4732 66.5811 56.4454 66.6065 56.4167C66.6291 56.3853 66.6517 56.3538 66.675 56.3214C66.7661 56.2572 66.7661 56.2572 66.9117 56.2732C67.0059 56.2998 67.0059 56.2998 67.1019 56.327C67.1567 56.3419 67.1567 56.3419 67.2127 56.357C67.3478 56.3938 67.4825 56.4319 67.6173 56.4699C71.8637 57.6486 76.2683 58.2434 87.1417 55.9382C87.1813 55.9206 87.2209 55.9031 87.2617 55.885C88.9322 55.1435 90.5559 54.0727 91.8233 52.7478C91.9511 52.6189 92.0796 52.4911 92.211 52.3658C92.5831 52.007 92.8959 51.6176 93.2065 51.2057C93.2312 51.1733 93.256 51.1408 93.2816 51.1074C94.8807 49.0102 95.8399 46.4937 96.2788 43.9077C96.2893 43.8455 96.2999 43.7833 96.3108 43.7192C96.4758 42.6966 96.5265 41.6861 96.5248 40.6508C96.5248 40.5548 96.5248 40.5548 96.5248 40.4568C96.5229 39.3648 96.4598 38.2998 96.2921 37.2212C96.2832 37.1638 96.2832 37.1638 96.2742 37.1053C96.1977 36.611 96.1153 36.1181 96.0261 35.626Z" fill="#9CBE4D"/>
<path d="M105.283 78.6429C105.567 78.7806 105.691 78.9979 105.815 79.281C105.835 79.4475 105.835 79.4475 105.835 79.6289C105.835 79.698 105.836 79.767 105.836 79.8382C105.836 79.9141 105.836 79.9901 105.835 80.066C105.835 80.1465 105.836 80.2269 105.836 80.3074C105.837 80.4805 105.837 80.6535 105.837 80.8265C105.836 81.1008 105.837 81.3751 105.838 81.6494C105.84 82.2325 105.841 82.8155 105.841 83.3986C105.842 84.0265 105.843 84.6544 105.845 85.2823C105.846 85.5542 105.846 85.8261 105.846 86.0981C105.846 86.2684 105.846 86.4387 105.847 86.609C105.847 86.6871 105.847 86.7653 105.847 86.8434C105.842 88.058 106.174 89.105 107.019 90.0037C107.848 90.824 108.819 91.1554 109.968 91.1652C111.029 91.1561 111.933 90.8451 112.731 90.1283C112.763 90.1008 112.796 90.0732 112.829 90.0448C113.567 89.3748 113.953 88.3461 114.022 87.3722C114.028 87.1579 114.028 86.9442 114.027 86.7299C114.027 86.6487 114.027 86.5674 114.028 86.4862C114.028 86.3131 114.028 86.14 114.028 85.9668C114.027 85.6928 114.028 85.4188 114.029 85.1448C114.031 84.465 114.031 83.7851 114.031 83.1053C114.031 82.5752 114.031 82.0452 114.033 81.5152C114.034 81.243 114.034 80.9708 114.033 80.6987C114.032 80.5295 114.033 80.3603 114.034 80.1911C114.034 80.1129 114.034 80.0346 114.033 79.9564C114.03 79.4302 114.069 79.1621 114.4 78.7526C114.621 78.5828 114.892 78.6037 115.159 78.6136C115.375 78.649 115.486 78.7085 115.639 78.861C115.818 79.1152 115.889 79.3213 115.89 79.6318C115.89 79.7016 115.891 79.7713 115.891 79.8432C115.891 79.9199 115.89 79.9965 115.89 80.0732C115.89 80.1545 115.891 80.2357 115.891 80.317C115.892 80.5374 115.891 80.7578 115.891 80.9783C115.891 81.2099 115.891 81.4415 115.891 81.6731C115.891 82.0627 115.891 82.4523 115.89 82.8419C115.889 83.2901 115.89 83.7382 115.891 84.1864C115.891 84.5726 115.891 84.9588 115.891 85.345C115.891 85.575 115.891 85.805 115.891 86.035C115.896 88.2401 115.535 89.902 113.942 91.5251C112.669 92.7401 111.073 93.0444 109.373 93.0123C108.93 92.9999 108.521 92.9287 108.102 92.787C108.067 92.7753 108.032 92.7636 107.996 92.7516C106.489 92.2313 105.265 91.0941 104.545 89.6836C104.116 88.8005 103.998 87.8873 103.996 86.917C103.996 86.8343 103.996 86.7515 103.995 86.6688C103.994 86.3984 103.994 86.128 103.993 85.8576C103.993 85.7643 103.993 85.6709 103.993 85.5776C103.992 85.1392 103.991 84.7009 103.99 84.2626C103.99 83.7573 103.988 83.2521 103.986 82.7469C103.985 82.3557 103.984 81.9645 103.984 81.5732C103.984 81.3398 103.983 81.1065 103.982 80.8731C103.981 80.6537 103.98 80.4343 103.981 80.2149C103.981 80.1345 103.981 80.0541 103.98 79.9738C103.975 79.4559 104.014 79.162 104.345 78.7526C104.607 78.5516 104.974 78.5924 105.283 78.6429Z" fill="white"/>
<path d="M83.7082 76.9998C84.2015 77.2321 84.5508 77.5448 84.7477 78.0579C84.7922 78.2106 84.8076 78.3464 84.808 78.5053C84.8083 78.5523 84.8085 78.5993 84.8087 78.6476C84.8087 78.699 84.8087 78.7504 84.8087 78.8033C84.8089 78.858 84.8091 78.9128 84.8093 78.9692C84.8099 79.1532 84.8101 79.3372 84.8103 79.5212C84.8106 79.6529 84.811 79.7846 84.8114 79.9163C84.8124 80.312 84.8129 80.7076 84.8134 81.1033C84.8136 81.2897 84.8139 81.4762 84.8142 81.6626C84.8151 82.2826 84.8159 82.9026 84.8163 83.5226C84.8164 83.6834 84.8165 83.8442 84.8166 84.0051C84.8166 84.045 84.8166 84.085 84.8167 84.1262C84.8171 84.7735 84.8184 85.4207 84.8202 86.068C84.8219 86.7329 84.8229 87.3978 84.8231 88.0628C84.8232 88.4359 84.8236 88.8091 84.825 89.1823C84.8263 89.5334 84.8265 89.8846 84.8259 90.2357C84.8259 90.3645 84.8262 90.4932 84.827 90.6219C84.8279 90.798 84.8275 90.9741 84.8268 91.1502C84.8274 91.2008 84.828 91.2515 84.8286 91.3036C84.8237 91.813 84.6609 92.221 84.3111 92.5908C83.8725 93.0033 83.4209 93.0286 82.852 93.0164C82.578 93.0025 82.3708 92.9369 82.1409 92.7869C82.108 92.7688 82.075 92.7508 82.0411 92.7322C81.7322 92.5453 81.5209 92.2341 81.4199 91.8889C81.3454 91.576 81.3277 91.281 81.329 90.9601C81.3288 90.9067 81.3286 90.8532 81.3284 90.7982C81.3278 90.6201 81.3281 90.4421 81.3283 90.264C81.328 90.136 81.3278 90.0079 81.3274 89.8798C81.3268 89.5687 81.3267 89.2575 81.3268 88.9464C81.3269 88.6933 81.3268 88.4403 81.3266 88.1873C81.3265 88.1512 81.3265 88.1151 81.3265 88.0779C81.3264 88.0046 81.3263 87.9313 81.3263 87.858C81.3257 87.1713 81.3258 86.4846 81.3261 85.7979C81.3264 85.1704 81.3258 84.5429 81.3248 83.9154C81.3238 83.2702 81.3233 82.625 81.3235 81.9798C81.3236 81.6179 81.3235 81.256 81.3227 80.8941C81.3221 80.5538 81.3222 80.2136 81.3229 79.8733C81.323 79.7486 81.3229 79.6238 81.3224 79.4991C81.3219 79.3285 81.3223 79.158 81.323 78.9874C81.3226 78.9384 81.3222 78.8893 81.3218 78.8388C81.3262 78.3082 81.4658 77.8225 81.8217 77.4198C82.3635 76.968 83.0265 76.7829 83.7082 76.9998Z" fill="white"/>
<path d="M83.9559 71.3973C84.0054 71.4305 84.0054 71.4305 84.0559 71.4644C84.0927 71.4882 84.1295 71.512 84.1675 71.5365C84.6008 71.8384 84.9681 72.261 85.0667 72.7937C85.1114 73.4573 85.053 73.9711 84.6209 74.5053C84.2712 74.8961 83.9112 75.1206 83.3782 75.1537C82.9047 75.1701 82.4478 75.18 82.0343 74.9207C81.9925 74.8948 81.9508 74.869 81.9077 74.8424C81.4851 74.548 81.2084 74.104 81.0966 73.6013C81.017 72.9245 81.1742 72.3916 81.5921 71.8532C82.1366 71.2485 83.2216 70.988 83.9559 71.3973Z" fill="white"/>
</g>
<defs>
<clipPath id="clip0_133_1330">
<rect width="133" height="93" fill="white"/>
</clipPath>
</defs>
</svg>
