<svg width="292" height="82" viewBox="0 0 292 82" fill="none" xmlns="http://www.w3.org/2000/svg">
<path d="M120.819 18.5351C120.886 18.5352 120.953 18.5352 121.022 18.5352C122.07 18.538 123.056 18.6074 124.067 18.9022C124.123 18.9174 124.179 18.9327 124.237 18.9484C125.385 19.2634 126.458 19.7996 127.357 20.5801C127.465 20.6725 127.465 20.6725 127.576 20.7669C127.959 21.1019 128.311 21.4359 128.623 21.8385C128.895 21.7223 129.044 21.5947 129.229 21.3666C130.687 19.6651 132.923 18.7313 135.138 18.5513C135.577 18.5273 136.015 18.5263 136.453 18.5299C136.519 18.5302 136.585 18.5304 136.654 18.5307C137.689 18.5366 138.679 18.5959 139.675 18.9022C139.734 18.9202 139.793 18.9381 139.854 18.9567C142.458 19.7818 144.758 21.7018 146.032 24.1102C146.171 24.3843 146.299 24.6623 146.425 24.9425C146.486 25.0752 146.486 25.0752 146.548 25.2106C147.204 26.757 147.234 28.3612 147.228 30.0138C147.228 30.2408 147.229 30.4678 147.23 30.6948C147.231 31.243 147.231 31.7913 147.23 32.3396C147.229 32.7853 147.229 33.231 147.229 33.6768C147.229 33.7406 147.229 33.8044 147.23 33.8701C147.23 33.9997 147.23 34.1294 147.23 34.259C147.231 35.4696 147.23 36.6801 147.228 37.8906C147.226 38.9277 147.227 39.9648 147.228 41.0019C147.23 42.2098 147.231 43.4178 147.23 44.6257C147.23 44.7546 147.229 44.8835 147.229 45.0123C147.229 45.1074 147.229 45.1074 147.229 45.2044C147.229 45.6497 147.229 46.095 147.23 46.5402C147.231 47.0827 147.231 47.6251 147.229 48.1676C147.228 48.444 147.228 48.7204 147.229 48.9968C147.23 49.2969 147.229 49.597 147.227 49.8972C147.228 50.0269 147.228 50.0269 147.229 50.1593C147.22 51.0224 146.949 51.6729 146.354 52.2992C145.649 52.9201 144.801 52.9421 143.907 52.8983C143.506 52.8564 143.203 52.6915 142.881 52.4598C142.826 52.4224 142.771 52.385 142.715 52.3464C142.046 51.8398 141.821 51.1612 141.7 50.3624C141.678 50.0507 141.677 49.7405 141.679 49.4281C141.679 49.2925 141.679 49.2925 141.678 49.1542C141.678 48.8532 141.678 48.5523 141.679 48.2514C141.678 48.0348 141.678 47.8183 141.678 47.6017C141.677 47.1363 141.677 46.6708 141.677 46.2054C141.677 45.5312 141.676 44.8571 141.675 44.1829C141.673 43.0874 141.671 41.9919 141.67 40.8964C141.67 40.8309 141.67 40.7655 141.67 40.698C141.669 39.7691 141.668 38.8403 141.668 37.9114C141.668 37.8133 141.668 37.8133 141.668 37.7133C141.668 37.6479 141.668 37.5826 141.668 37.5153C141.668 36.424 141.666 35.3327 141.663 34.2415C141.662 33.5695 141.661 32.8975 141.662 32.2256C141.663 31.71 141.662 31.1945 141.66 30.679C141.659 30.4683 141.659 30.2576 141.66 30.0468C141.681 28.5505 141.681 28.5505 141.278 27.1238C141.245 27.0453 141.211 26.9669 141.176 26.8861C140.977 26.4405 140.719 26.0982 140.38 25.7474C140.266 25.6137 140.266 25.6137 140.266 25.4459C140.217 25.424 140.169 25.402 140.119 25.3794C139.917 25.2718 139.761 25.1469 139.586 25.0002C138.41 24.0771 137.066 23.9978 135.625 24.1036C135.238 24.1602 134.886 24.2796 134.529 24.4392C134.462 24.4686 134.396 24.498 134.327 24.5283C133.092 25.1467 132.185 26.2003 131.746 27.5005C131.398 28.6925 131.469 29.9548 131.472 31.1826C131.473 31.396 131.472 31.6095 131.472 31.8229C131.472 32.2803 131.473 32.7378 131.473 33.1952C131.474 33.9191 131.474 34.6429 131.473 35.3668C131.473 35.6152 131.472 35.8636 131.472 36.112C131.472 36.1741 131.472 36.2362 131.472 36.3001C131.471 37.0041 131.471 37.7082 131.47 38.4123C131.47 38.4765 131.47 38.5408 131.47 38.607C131.47 39.6495 131.471 40.6919 131.472 41.7344C131.473 42.8076 131.473 43.8808 131.47 44.954C131.469 45.6145 131.469 46.2749 131.472 46.9354C131.473 47.4416 131.472 47.9478 131.47 48.4541C131.47 48.6611 131.47 48.868 131.472 49.075C131.48 50.3531 131.465 51.2566 130.579 52.2501C129.988 52.7772 129.483 52.9071 128.702 52.916C128.606 52.9173 128.606 52.9173 128.509 52.9186C127.692 52.9059 127.201 52.6158 126.615 52.0633C125.866 51.2945 125.826 50.3955 125.827 49.3782C125.827 49.2884 125.827 49.1986 125.827 49.1061C125.826 48.8058 125.826 48.5054 125.827 48.2051C125.826 47.9895 125.826 47.774 125.826 47.5584C125.825 47.0943 125.825 46.6303 125.824 46.1662C125.824 45.4317 125.822 44.6973 125.821 43.9629C125.82 43.7113 125.82 43.4596 125.819 43.208C125.819 43.1452 125.819 43.0823 125.819 43.0175C125.817 42.3023 125.816 41.5871 125.815 40.8719C125.815 40.8066 125.814 40.7413 125.814 40.6739C125.812 39.6161 125.812 38.5582 125.811 37.5003C125.81 36.4126 125.808 35.3248 125.805 34.237C125.803 33.5671 125.803 32.8971 125.803 32.2272C125.803 31.7128 125.802 31.1985 125.8 30.6842C125.799 30.474 125.799 30.2639 125.8 30.0537C125.804 28.3801 125.677 26.8895 124.475 25.5898C123.225 24.433 121.98 24.0467 120.312 24.0777C119.106 24.1271 117.896 24.6425 117.064 25.5298C116.139 26.6036 115.687 27.7197 115.692 29.1266C115.691 29.2166 115.691 29.3066 115.691 29.3993C115.69 29.7 115.69 30.0007 115.69 30.3014C115.689 30.5174 115.689 30.7333 115.688 30.9493C115.687 31.414 115.686 31.8787 115.686 32.3434C115.685 33.0162 115.684 33.689 115.682 34.3619C115.679 35.455 115.676 36.5481 115.675 37.6412C115.675 37.7065 115.674 37.7719 115.674 37.8392C115.673 38.3031 115.673 38.7669 115.672 39.2308C115.671 39.7602 115.67 40.2896 115.669 40.819C115.669 40.8842 115.669 40.9494 115.669 41.0166C115.667 42.1054 115.664 43.1942 115.661 44.283C115.66 44.9538 115.658 45.6246 115.658 46.2954C115.658 46.8099 115.656 47.3243 115.655 47.8388C115.654 48.0493 115.654 48.2598 115.654 48.4704C115.654 48.7584 115.653 49.0464 115.652 49.3344C115.652 49.4172 115.653 49.4999 115.653 49.5851C115.647 50.4966 115.541 51.3124 114.955 52.0403C114.34 52.6303 113.711 52.9273 112.856 52.916C112.789 52.9153 112.722 52.9146 112.652 52.9139C111.794 52.8893 111.244 52.5692 110.652 51.9564C110.166 51.3337 110.121 50.7794 110.123 50.0182C110.123 49.9241 110.122 49.8299 110.122 49.7329C110.121 49.4173 110.121 49.1016 110.121 48.7859C110.121 48.5596 110.12 48.3333 110.119 48.107C110.118 47.5558 110.118 47.0045 110.118 46.4532C110.117 46.0044 110.117 45.5557 110.117 45.1069C110.115 43.8324 110.114 42.5579 110.114 41.2834C110.114 41.2147 110.114 41.146 110.114 41.0753C110.114 41.0065 110.114 40.9377 110.114 40.8669C110.115 39.7551 110.113 38.6433 110.111 37.5315C110.108 36.3878 110.107 35.2441 110.107 34.1004C110.107 33.4592 110.107 32.818 110.105 32.1768C110.103 31.6302 110.103 31.0835 110.104 30.5369C110.105 30.2587 110.104 29.9806 110.103 29.7024C110.089 26.4184 110.994 23.847 113.331 21.4872C115.397 19.4539 117.925 18.5281 120.819 18.5351Z" fill="#323232"/>
<path d="M203.301 18.6977C204.008 19.0905 204.545 19.6488 204.813 20.4128C204.922 20.8048 204.917 21.1894 204.915 21.5939C204.916 21.6778 204.916 21.7617 204.916 21.8482C204.917 22.1288 204.917 22.4094 204.916 22.6901C204.917 22.8916 204.917 23.0931 204.918 23.2946C204.919 23.7851 204.919 24.2755 204.919 24.7659C204.919 25.1652 204.919 25.5646 204.919 25.9639C204.919 26.0208 204.919 26.0778 204.919 26.1365C204.919 26.2522 204.919 26.3679 204.92 26.4836C204.921 27.5687 204.92 28.6537 204.92 29.7387C204.919 30.7279 204.92 31.7171 204.922 32.7063C204.924 33.7244 204.924 34.7426 204.924 35.7608C204.924 36.3314 204.924 36.902 204.925 37.4726C204.926 38.0103 204.926 38.5481 204.925 39.0858C204.925 39.2819 204.925 39.4781 204.926 39.6742C204.931 41.1264 204.868 42.5853 204.424 43.9812C204.392 44.0828 204.392 44.0828 204.36 44.1865C203.732 46.0989 202.67 47.6759 201.265 49.104C201.175 49.2014 201.175 49.2014 201.083 49.3007C199.584 50.8831 197.601 51.9304 195.518 52.5227C195.459 52.5394 195.401 52.5561 195.341 52.5733C194.345 52.8417 193.361 52.9086 192.334 52.9057C192.134 52.9055 191.933 52.9075 191.733 52.9096C190.546 52.9145 189.409 52.7516 188.272 52.4021C188.167 52.3699 188.167 52.3699 188.06 52.3369C184.796 51.2984 182.135 48.7808 180.561 45.7968C179.074 42.8528 178.905 39.2342 179.938 36.1181C180.611 34.2153 181.748 32.6898 183.126 31.2346C183.181 31.175 183.236 31.1154 183.294 31.054C185.293 28.9719 188.263 27.5986 191.163 27.513C191.446 27.5087 191.729 27.5083 192.012 27.5104C192.227 27.5118 192.441 27.5104 192.655 27.5088C194.973 27.5059 197.173 28.0263 199.072 29.3889C199.155 29.4443 199.239 29.4997 199.325 29.5567C199.325 29.4484 199.325 29.3401 199.326 29.2285C199.329 28.2053 199.334 27.1821 199.34 26.1589C199.344 25.633 199.346 25.107 199.348 24.581C199.349 24.0729 199.352 23.5649 199.356 23.0568C199.357 22.8635 199.358 22.6701 199.358 22.4768C199.358 22.2049 199.36 21.9331 199.363 21.6612C199.363 21.5427 199.363 21.5427 199.362 21.4217C199.374 20.6458 199.603 19.9141 200.097 19.3039C200.9 18.531 202.253 18.2685 203.301 18.6977ZM189.707 33.4158C189.632 33.4401 189.557 33.4643 189.479 33.4892C188.517 33.8253 187.734 34.485 187.007 35.1776C186.953 35.2267 186.899 35.2758 186.844 35.3264C185.706 36.3973 184.878 38.0587 184.813 39.624C184.809 39.7202 184.804 39.8165 184.8 39.9157C184.735 42.0648 185.519 43.7701 186.94 45.3704C187.852 46.333 188.939 46.9753 190.213 47.3423C190.297 47.3665 190.297 47.3665 190.383 47.3913C192.203 47.8551 194.102 47.499 195.709 46.5958C197.521 45.5233 198.7 43.9052 199.258 41.9111C199.709 40.0759 199.363 38.2088 198.397 36.6038C197.485 35.1439 196.127 34.0344 194.516 33.4158C194.427 33.3811 194.337 33.3464 194.245 33.3106C192.833 32.8504 191.094 32.8997 189.707 33.4158Z" fill="#323232"/>
<path d="M163.852 27.5118C163.919 27.5118 163.986 27.5119 164.055 27.5119C165.102 27.5152 166.086 27.5809 167.095 27.8788C167.159 27.8968 167.222 27.9148 167.288 27.9333C169.149 28.4693 170.863 29.3803 172.326 30.6473C172.408 30.717 172.489 30.7866 172.573 30.8584C173.74 31.8787 174.613 33.083 175.316 34.454C175.344 34.5078 175.372 34.5617 175.401 34.6171C175.808 35.4382 175.87 36.1781 175.609 37.059C175.509 37.3411 175.386 37.5466 175.195 37.7783C175.16 37.8235 175.125 37.8687 175.089 37.9153C174.78 38.2723 174.416 38.4775 173.995 38.6812C173.935 38.7102 173.876 38.7393 173.815 38.7692C173.229 39.0536 172.635 39.3188 172.038 39.5793C171.776 39.6938 171.514 39.8091 171.252 39.9243C171.114 39.9849 170.976 40.0455 170.838 40.106C170.103 40.4288 169.369 40.7549 168.635 41.0816C168.569 41.1111 168.503 41.1405 168.435 41.1708C168.097 41.3212 167.759 41.4718 167.421 41.6224C167.147 41.7448 166.872 41.8672 166.597 41.9894C164.024 43.1342 161.466 44.3105 158.911 45.4966C159.316 46.352 160.34 46.7736 161.189 47.0905C162.982 47.7188 165.132 47.651 166.857 46.8653C168.663 45.9966 170.036 44.5631 170.719 42.6753C170.743 42.6062 170.767 42.5371 170.792 42.4659C171.038 41.8424 171.5 41.2951 172.11 40.9977C172.905 40.738 174.008 40.7308 174.764 41.1023C175.474 41.5643 175.899 42.2099 176.09 43.0318C176.329 44.4643 175.351 46.1875 174.562 47.3422C174.438 47.5115 174.311 47.6794 174.182 47.8456C174.121 47.9255 174.059 48.0054 173.996 48.0878C171.896 50.7185 168.753 52.4573 165.408 52.8792C165.188 52.8895 164.971 52.8968 164.751 52.8992C164.69 52.9001 164.628 52.9009 164.565 52.9017C160.895 52.9408 157.739 51.9643 155.066 49.3866C154.961 49.2862 154.854 49.1881 154.747 49.0902C152.517 46.9981 151.214 43.9395 151.125 40.9116C151.101 39.6875 151.114 38.4711 151.403 37.2749C151.417 37.2149 151.431 37.1548 151.446 37.0929C152.282 33.7618 154.649 30.8816 157.583 29.1215C158.519 28.5802 159.495 28.189 160.536 27.8945C160.593 27.8782 160.651 27.8618 160.71 27.845C161.751 27.5682 162.782 27.509 163.852 27.5118ZM159.249 34.7581C159.203 34.7994 159.158 34.8407 159.111 34.8833C157.799 36.0873 156.793 37.5505 156.633 39.3723C156.622 39.7086 156.625 40.0428 156.633 40.379C157.722 39.9202 158.804 39.4499 159.879 38.9627C160.264 38.7884 160.649 38.6148 161.034 38.4413C161.112 38.4063 161.189 38.3713 161.269 38.3353C162 38.0061 162.734 37.6819 163.467 37.3588C164.623 36.85 165.775 36.3351 166.927 35.8173C167.005 35.7821 167.083 35.7469 167.164 35.7107C167.385 35.6111 167.607 35.5114 167.828 35.4116C167.894 35.3818 167.961 35.3521 168.029 35.3215C168.121 35.28 168.121 35.28 168.214 35.2378C168.267 35.2139 168.32 35.19 168.375 35.1654C168.541 35.0886 168.704 35.0079 168.867 34.9259C168.079 33.8884 166.816 33.3485 165.553 33.1228C163.255 32.8333 160.993 33.1483 159.249 34.7581Z" fill="#323232"/>
<path d="M93.6726 27.5065C93.7716 27.507 93.7716 27.507 93.8727 27.5074C94.9388 27.514 95.9546 27.5827 96.9841 27.8788C97.0526 27.8982 97.1211 27.9175 97.1917 27.9375C98.7602 28.3966 100.241 29.1579 101.54 30.144C101.618 30.2031 101.696 30.2623 101.777 30.3232C103.355 31.5631 105.176 33.4854 105.59 35.5132C105.687 36.391 105.533 37.1541 104.998 37.8635C104.376 38.4806 103.618 38.8024 102.827 39.1521C102.696 39.2107 102.565 39.2694 102.434 39.3282C102.024 39.5118 101.613 39.6938 101.203 39.8757C101.071 39.9342 100.939 39.9927 100.807 40.0512C100.168 40.3347 99.5285 40.6173 98.8887 40.8991C96.3611 42.0125 93.8461 43.1529 91.337 44.3068C90.4652 44.7074 89.5908 45.1027 88.7158 45.4966C89.6814 46.671 91.0114 47.2503 92.5125 47.4261C94.7125 47.5849 96.5801 47.2083 98.334 45.8321C98.3968 45.7845 98.4595 45.7368 98.5242 45.6876C99.6169 44.7976 100.175 43.562 100.724 42.304C101.007 41.6891 101.383 41.26 102.019 40.9945C102.406 40.858 102.772 40.8406 103.18 40.8457C103.251 40.8463 103.321 40.847 103.394 40.8476C103.907 40.8612 104.318 40.9196 104.746 41.218C104.798 41.2516 104.85 41.2852 104.904 41.3199C105.422 41.7024 105.812 42.3472 105.927 42.9797C106.075 44.0482 105.699 44.8827 105.252 45.8321C105.225 45.8903 105.198 45.9484 105.17 46.0083C103.77 48.9609 100.969 51.1639 97.9215 52.2657C96.6148 52.7232 95.3159 52.9232 93.9335 52.9121C93.7359 52.9107 93.5384 52.9121 93.3407 52.9137C90.4531 52.9177 87.6697 51.8436 85.5098 49.943C85.4685 49.9069 85.4272 49.8709 85.3846 49.8338C83.3004 48.0098 81.8116 45.6878 81.2069 42.9797C81.1911 42.9106 81.1753 42.8415 81.1591 42.7703C81.0085 42.0119 81.0067 41.254 81.0069 40.4838C81.0065 40.2559 81.0034 40.0282 81.0002 39.8003C80.9781 36.3777 82.5204 33.508 84.8664 31.093C87.2615 28.7662 90.3211 27.4784 93.6726 27.5065ZM88.0409 35.7649C87.0707 36.932 86.4089 38.5075 86.4326 40.0382C86.4343 40.1518 86.4361 40.2654 86.4378 40.379C87.2373 40.0889 88.0068 39.7527 88.7775 39.3953C89.1219 39.2357 89.4669 39.0774 89.812 38.9191C89.918 38.8704 89.918 38.8704 90.0261 38.8208C90.7307 38.4981 91.4392 38.1845 92.1486 37.8727C93.4401 37.3048 94.7274 36.7279 96.0131 36.1472C96.8682 35.7612 97.7256 35.3814 98.5871 35.0098C98.6134 34.7594 98.6134 34.7594 98.4685 34.6103C96.9646 33.2349 95.1395 32.9997 93.17 33.0488C91.1287 33.1374 89.3718 34.279 88.0409 35.7649Z" fill="#323232"/>
<path d="M271.124 21.2512C271.502 21.4132 271.698 21.6232 271.896 21.9812C272.052 22.4029 272.015 22.86 272.014 23.3035C272.014 23.4176 272.015 23.5318 272.016 23.6459C272.019 23.9544 272.019 24.2629 272.019 24.5714C272.019 24.8943 272.021 25.2172 272.023 25.5401C272.027 26.151 272.028 26.7618 272.029 27.3727C272.031 28.0684 272.034 28.7641 272.037 29.4598C272.044 30.8903 272.049 32.3209 272.052 33.7514C272.092 33.7207 272.132 33.69 272.173 33.6584C272.359 33.5168 272.544 33.3754 272.729 33.234C272.792 33.1857 272.855 33.1374 272.92 33.0877C275.741 30.9372 278.796 29.9142 282.371 30.2544C282.851 30.3217 283.314 30.4308 283.779 30.5635C283.834 30.5778 283.889 30.5922 283.945 30.607C286.737 31.3484 289.099 33.4007 290.529 35.8488C292.09 38.5432 292.353 41.7895 291.58 44.7747C290.766 47.6948 288.656 50.1285 286.036 51.6182C285.326 52.008 284.585 52.2905 283.811 52.5227C283.728 52.5477 283.728 52.5477 283.643 52.5733C282.641 52.8586 281.656 52.9135 280.621 52.9107C280.554 52.9107 280.487 52.9106 280.418 52.9105C277.26 52.8991 274.604 51.7735 272.348 49.5684C269.855 47.0517 269.057 43.9509 269.065 40.5168C269.064 40.3176 269.064 40.1184 269.063 39.9192C269.062 39.3837 269.062 38.8482 269.062 38.3126C269.062 37.9775 269.062 37.6424 269.062 37.3074C269.062 37.2514 269.062 37.1955 269.062 37.1379C269.061 37.0242 269.061 36.9106 269.061 36.7969C269.06 35.7366 269.061 34.6762 269.061 33.6159C269.062 32.647 269.061 31.6781 269.059 30.7092C269.057 29.7111 269.056 28.713 269.057 27.7149C269.057 27.1557 269.057 26.5966 269.056 26.0375C269.054 25.5128 269.055 24.9881 269.056 24.4634C269.056 24.271 269.056 24.0786 269.055 23.8863C269.054 23.6235 269.055 23.3609 269.057 23.0981C269.056 23.0222 269.055 22.9463 269.054 22.8681C269.061 22.2651 269.216 21.8179 269.637 21.3771C270.125 21.1761 270.603 21.1916 271.124 21.2512ZM273.987 36.0323C272.838 37.3622 272.032 39.1125 271.968 40.8824C271.963 40.9916 271.959 41.1009 271.954 41.2134C271.89 43.6324 272.682 45.7363 274.33 47.51C274.381 47.5666 274.432 47.6232 274.484 47.6814C275.757 49.0264 277.708 50.0218 279.575 50.1256C281.269 50.1561 282.732 50.103 284.286 49.3557C284.363 49.3187 284.441 49.2817 284.521 49.2436C286.534 48.2215 288.176 46.223 288.868 44.1019C288.918 43.9242 288.965 43.7459 289.01 43.567C289.029 43.4921 289.048 43.4171 289.068 43.3399C289.52 41.1729 289.075 38.8425 287.876 36.9902C287.555 36.5224 287.167 36.1169 286.766 35.7163C286.66 35.609 286.556 35.4986 286.453 35.388C285.225 34.0931 283.372 33.1656 281.572 33.0654C278.506 33.0102 276.139 33.7442 273.987 36.0323Z" fill="#323232"/>
<path d="M222.948 21.2512C223.341 21.443 223.596 21.6992 223.792 22.0901C223.8 22.2687 223.802 22.4475 223.802 22.6263C223.802 22.6818 223.802 22.7373 223.802 22.7945C223.803 22.9819 223.802 23.1693 223.802 23.3568C223.802 23.4929 223.802 23.629 223.802 23.7651C223.802 24.1304 223.801 24.4958 223.801 24.8611C223.8 25.2036 223.8 25.5461 223.8 25.8886C223.8 26.8911 223.798 27.8936 223.797 28.896C223.796 31.1351 223.794 33.3741 223.792 35.681C228.665 35.681 233.537 35.681 238.557 35.681C238.55 31.3137 238.55 31.3137 238.542 26.9464C238.541 26.102 238.541 26.102 238.541 25.7067C238.541 25.4305 238.54 25.1543 238.539 24.8781C238.538 24.5258 238.538 24.1734 238.538 23.821C238.538 23.6917 238.537 23.5624 238.537 23.4331C238.536 23.2583 238.536 23.0836 238.537 22.9088C238.536 22.8109 238.536 22.7129 238.536 22.6121C238.578 22.0701 238.739 21.7759 239.148 21.419C239.455 21.2152 239.615 21.2261 239.981 21.225C240.134 21.2229 240.134 21.2229 240.291 21.2207C240.71 21.2647 240.919 21.407 241.193 21.7179C241.419 22.0307 241.436 22.1925 241.437 22.5758C241.437 22.6799 241.438 22.7839 241.438 22.8911C241.438 23.0077 241.438 23.1242 241.438 23.2408C241.438 23.3637 241.439 23.4867 241.439 23.6097C241.44 23.9489 241.44 24.288 241.44 24.6272C241.441 24.9925 241.441 25.3579 241.442 25.7232C241.444 26.6061 241.445 27.4889 241.445 28.3718C241.446 28.7873 241.446 29.2027 241.447 29.6182C241.448 30.9988 241.449 32.3794 241.45 33.7601C241.45 34.1185 241.45 34.477 241.45 34.8354C241.45 34.9245 241.45 35.0136 241.451 35.1054C241.451 36.5492 241.453 37.993 241.456 39.4367C241.459 40.9181 241.46 42.3995 241.461 43.8809C241.461 44.713 241.462 45.5451 241.464 46.3772C241.466 47.0858 241.466 47.7943 241.465 48.5029C241.465 48.8645 241.465 49.2261 241.467 49.5878C241.468 49.9188 241.468 50.2497 241.467 50.5807C241.467 50.7005 241.467 50.8203 241.468 50.9401C241.477 52.0511 241.477 52.0511 241.088 52.4598C240.634 52.8579 240.348 52.9191 239.748 52.9133C239.342 52.8607 239.067 52.6909 238.81 52.3759C238.607 51.9676 238.525 51.6737 238.526 51.2116C238.526 51.1568 238.526 51.1019 238.526 51.0454C238.525 50.8627 238.527 50.6801 238.528 50.4975C238.528 50.3638 238.528 50.2302 238.528 50.0966C238.528 49.7398 238.529 49.383 238.531 49.0261C238.533 48.6909 238.533 48.3557 238.533 48.0205C238.534 47.0411 238.538 46.0617 238.541 45.0823C238.546 42.8935 238.552 40.7047 238.557 38.4495C233.685 38.4495 228.812 38.4495 223.792 38.4495C223.805 42.872 223.805 42.872 223.823 47.2944C223.824 48.1495 223.824 48.1495 223.824 48.5498C223.825 48.8295 223.826 49.1092 223.828 49.3889C223.83 49.7457 223.831 50.1025 223.83 50.4594C223.83 50.5903 223.831 50.7212 223.832 50.8521C223.834 51.0292 223.834 51.2061 223.833 51.3831C223.833 51.4823 223.833 51.5814 223.834 51.6835C223.768 52.1133 223.555 52.3715 223.233 52.6538C222.802 52.9581 222.368 52.9485 221.852 52.8793C221.479 52.6964 221.237 52.4658 221.008 52.1242C220.924 51.8127 220.913 51.5179 220.912 51.1964C220.912 51.0937 220.912 50.991 220.911 50.8852C220.912 50.7715 220.912 50.6578 220.912 50.5441C220.911 50.4231 220.911 50.3021 220.911 50.1811C220.91 49.8485 220.91 49.516 220.91 49.1835C220.91 48.8248 220.909 48.4662 220.909 48.1076C220.908 47.3234 220.907 46.5392 220.907 45.7551C220.906 45.2655 220.906 44.7759 220.906 44.2863C220.905 42.9308 220.904 41.5752 220.904 40.2197C220.903 40.133 220.903 40.0462 220.903 39.9568C220.903 39.8264 220.903 39.8264 220.903 39.6934C220.903 39.5172 220.903 39.341 220.903 39.1648C220.903 39.0774 220.903 38.99 220.903 38.8999C220.903 37.4834 220.901 36.0668 220.899 34.6503C220.897 33.196 220.896 31.7418 220.896 30.2875C220.896 29.4709 220.896 28.6544 220.894 27.8379C220.893 27.1426 220.892 26.4474 220.893 25.7522C220.894 25.3975 220.893 25.0428 220.892 24.6881C220.891 24.3633 220.891 24.0385 220.892 23.7137C220.892 23.5963 220.892 23.4789 220.891 23.3615C220.884 22.0119 220.884 22.0119 221.294 21.5336C221.73 21.1161 222.388 21.1721 222.948 21.2512Z" fill="#323232"/>
<path d="M248.006 30.2279C248.457 30.4452 248.654 30.788 248.85 31.2346C248.882 31.4974 248.882 31.4974 248.882 31.7835C248.883 31.8925 248.883 32.0015 248.884 32.1138C248.884 32.2336 248.883 32.3534 248.883 32.4732C248.883 32.6001 248.883 32.7271 248.884 32.8541C248.885 33.1271 248.885 33.4001 248.885 33.6731C248.884 34.1059 248.886 34.5387 248.887 34.9715C248.89 35.8914 248.891 36.8112 248.892 37.7311C248.893 38.7218 248.895 39.7125 248.898 40.7032C248.9 41.1322 248.9 41.5612 248.9 41.9903C248.899 42.259 248.9 42.5277 248.902 42.7964C248.902 42.9197 248.902 43.0429 248.901 43.1662C248.893 45.0826 249.419 46.7344 250.76 48.1524C252.074 49.4466 253.615 49.9694 255.436 49.9849C257.12 49.9706 258.553 49.48 259.818 48.349C259.87 48.3055 259.921 48.262 259.974 48.2172C261.144 47.1601 261.756 45.5371 261.866 44.0006C261.875 43.6625 261.876 43.3253 261.874 42.9871C261.874 42.859 261.875 42.7308 261.875 42.6026C261.876 42.3295 261.876 42.0564 261.875 41.7832C261.874 41.3509 261.875 40.9186 261.877 40.4863C261.88 39.4137 261.88 38.341 261.88 37.2684C261.88 36.4322 261.88 35.5959 261.883 34.7596C261.885 34.3302 261.885 33.9008 261.883 33.4714C261.883 33.2044 261.884 32.9375 261.885 32.6705C261.885 32.5471 261.885 32.4237 261.884 32.3003C261.879 31.47 261.94 31.0471 262.465 30.4009C262.816 30.133 263.245 30.1661 263.669 30.1817C264.011 30.2375 264.188 30.3314 264.431 30.572C264.714 30.9731 264.828 31.2983 264.828 31.7882C264.829 31.8982 264.83 32.0083 264.83 32.1216C264.83 32.2426 264.829 32.3636 264.829 32.4846C264.829 32.6128 264.83 32.741 264.83 32.8692C264.831 33.217 264.831 33.5648 264.83 33.9125C264.829 34.278 264.83 34.6434 264.83 35.0088C264.831 35.6235 264.83 36.2382 264.829 36.8529C264.828 37.56 264.828 38.267 264.83 38.9741C264.831 39.5835 264.831 40.1928 264.83 40.8021C264.83 41.165 264.83 41.5279 264.831 41.8908C264.838 45.3698 264.266 47.992 261.74 50.5528C259.721 52.4698 257.189 52.9499 254.493 52.8991C253.79 52.8796 253.143 52.7673 252.478 52.5437C252.423 52.5253 252.367 52.5068 252.31 52.4879C249.92 51.6669 247.978 49.8727 246.837 47.6473C246.156 46.2541 245.969 44.8132 245.967 43.2824C245.966 43.1518 245.966 43.0213 245.965 42.8907C245.963 42.4641 245.962 42.0375 245.961 41.6109C245.961 41.4636 245.961 41.3163 245.96 41.169C245.959 40.4775 245.958 39.7859 245.957 39.0943C245.956 38.2972 245.954 37.5001 245.95 36.7029C245.948 36.0857 245.947 35.4685 245.946 34.8512C245.946 34.483 245.945 34.1148 245.943 33.7465C245.941 33.4004 245.941 33.0542 245.942 32.7081C245.942 32.5813 245.941 32.4545 245.94 32.3277C245.933 31.5106 245.994 31.047 246.519 30.4009C246.935 30.0838 247.518 30.1482 248.006 30.2279Z" fill="#323232"/>
<path d="M213.791 27.6357C214.573 28.0021 215.127 28.4956 215.439 29.305C215.51 29.546 215.535 29.7603 215.535 30.011C215.536 30.0851 215.536 30.1592 215.536 30.2356C215.536 30.3166 215.536 30.3976 215.536 30.4811C215.537 30.5675 215.537 30.6539 215.537 30.7428C215.538 31.0332 215.538 31.3235 215.539 31.6138C215.539 31.8216 215.54 32.0294 215.54 32.2372C215.542 32.8614 215.543 33.4857 215.544 34.1099C215.544 34.4041 215.545 34.6982 215.545 34.9924C215.546 35.9706 215.548 36.9488 215.548 37.927C215.548 38.1807 215.549 38.4345 215.549 38.6882C215.549 38.7513 215.549 38.8144 215.549 38.8793C215.55 39.9006 215.552 40.9218 215.554 41.943C215.557 42.9921 215.559 44.0412 215.559 45.0902C215.559 45.679 215.56 46.2678 215.562 46.8565C215.564 47.4106 215.564 47.9646 215.564 48.5187C215.564 48.7218 215.564 48.9249 215.565 49.128C215.567 49.4058 215.566 49.6836 215.565 49.9614C215.566 50.0413 215.567 50.1212 215.568 50.2036C215.56 51.0072 215.302 51.6509 214.747 52.2343C214.052 52.8852 213.335 52.9251 212.433 52.9058C211.999 52.8839 211.67 52.7805 211.305 52.5437C211.253 52.5152 211.201 52.4868 211.147 52.4575C210.657 52.1625 210.322 51.6715 210.162 51.127C210.044 50.6333 210.016 50.1678 210.018 49.6616C210.017 49.5773 210.017 49.4929 210.017 49.406C210.016 49.1251 210.016 48.8442 210.017 48.5633C210.016 48.3613 210.016 48.1592 210.015 47.9571C210.014 47.4662 210.014 46.9753 210.014 46.4844C210.014 46.0852 210.014 45.686 210.014 45.2867C210.014 45.2298 210.014 45.1729 210.014 45.1142C210.014 44.9985 210.014 44.8829 210.013 44.7672C210.013 43.6837 210.013 42.6003 210.013 41.5168C210.014 40.5268 210.013 39.5368 210.011 38.5468C210.01 37.5288 210.009 36.5108 210.009 35.4928C210.009 34.9219 210.009 34.3509 210.008 33.78C210.007 33.2431 210.007 32.7062 210.008 32.1693C210.008 31.9725 210.008 31.7758 210.007 31.579C210.006 31.3099 210.007 31.0408 210.008 30.7716C210.008 30.6943 210.007 30.6169 210.006 30.5372C210.013 29.7 210.235 28.9337 210.799 28.2983C211.658 27.5855 212.71 27.2935 213.791 27.6357Z" fill="#323232"/>
<path d="M214.184 18.7963C214.263 18.8487 214.263 18.8487 214.343 18.9022C214.401 18.9397 214.46 18.9772 214.52 19.0159C215.207 19.4923 215.789 20.159 215.946 20.9995C216.017 22.0465 215.924 22.857 215.239 23.6998C214.684 24.3165 214.113 24.6706 213.268 24.723C212.517 24.7489 211.792 24.7644 211.137 24.3553C211.07 24.3145 211.004 24.2737 210.936 24.2317C210.266 23.7673 209.827 23.0668 209.65 22.2737C209.523 21.2058 209.773 20.365 210.435 19.5156C211.299 18.5616 213.02 18.1505 214.184 18.7963Z" fill="#323232"/>
<path d="M58.6658 0.801075C58.7077 0.801075 58.7497 0.801075 58.7929 0.801075C58.8768 0.897983 58.8768 0.897983 58.973 1.0352C59.0088 1.08598 59.0445 1.13676 59.0814 1.18908C59.1198 1.2447 59.1582 1.30033 59.1978 1.35764C59.2376 1.41497 59.2775 1.47231 59.3186 1.53138C60.41 3.1115 61.3574 4.7733 62.2226 6.48513C62.2549 6.5483 62.2871 6.61146 62.3203 6.67654C63.2977 8.60085 64.0559 10.6184 64.6997 12.6744C64.724 12.7518 64.7483 12.8291 64.7733 12.9088C65.5462 15.4033 66.0641 18.0246 66.2241 20.6321C66.2294 20.7142 66.2348 20.7963 66.2404 20.8809C66.2838 21.5719 66.3005 22.2608 66.2995 22.9531C66.2994 23.0063 66.2994 23.0595 66.2993 23.1143C66.2871 28.2026 65.0088 33.0778 62.7308 37.6211C62.7023 37.678 62.6738 37.7349 62.6445 37.7934C61.8613 39.3461 60.9171 40.7975 59.9361 42.2315C59.9011 42.2829 59.866 42.3343 59.8299 42.3872C59.6343 42.6735 59.4367 42.9583 59.2375 43.242C59.2082 43.2838 59.179 43.3255 59.1489 43.3684C58.677 44.0412 58.1913 44.7033 57.7001 45.3622C57.5851 45.5169 57.4708 45.672 57.3566 45.8273C56.9414 46.3912 56.5198 46.9483 56.0819 47.4949C55.997 47.6013 55.9128 47.7082 55.8288 47.8152C55.4149 48.3422 54.9931 48.8624 54.5676 49.3803C54.4846 49.4814 54.4018 49.5827 54.319 49.684C54.0378 50.0276 53.752 50.367 53.4633 50.7045C53.276 50.9239 53.092 51.1457 52.9098 51.3695C52.6824 51.6475 52.4446 51.9135 52.2017 52.1782C52.0617 52.335 51.9298 52.4962 51.7983 52.6602C51.5107 53.0141 51.2001 53.3438 50.8848 53.6733C50.6491 53.9198 50.4205 54.1707 50.1963 54.4276C50.0442 54.6007 49.8875 54.7694 49.7301 54.9378C49.6634 55.0094 49.5966 55.081 49.5299 55.1527C49.4797 55.2065 49.4797 55.2065 49.4285 55.2614C49.3342 55.3626 49.2402 55.4641 49.1463 55.5656C47.7096 57.1195 47.7096 57.1195 47.0061 57.802C46.8402 57.9641 46.6838 58.13 46.5331 58.3061C46.2398 58.6406 45.9237 58.9517 45.6074 59.2645C45.5404 59.3309 45.4735 59.3974 45.4066 59.4638C45.2634 59.606 45.1201 59.7481 44.9767 59.8902C44.7496 60.1151 44.5227 60.3404 44.2959 60.5656C43.7735 61.0843 43.2507 61.6027 42.728 62.1211C42.2486 62.5966 41.7692 63.0721 41.2901 63.5478C41.065 63.7714 40.8397 63.9947 40.6143 64.218C40.4738 64.3573 40.3333 64.4967 40.1929 64.6362C40.1282 64.7004 40.0635 64.7646 39.9987 64.8287C39.6766 65.1473 39.361 65.4675 39.0663 65.8115C38.9358 65.9618 38.795 66.1003 38.6523 66.239C38.5663 66.3234 38.5663 66.3234 38.4786 66.4094C38.3601 66.525 38.2415 66.6404 38.1228 66.7558C37.8239 67.0494 37.5542 67.3328 37.3249 67.6835C37.3812 67.6892 37.4374 67.6949 37.4954 67.7008C37.872 67.7545 38.2341 67.8717 38.5992 67.9756C43.8785 69.4505 49.4767 70.0522 61.524 67.2414C61.5713 67.2206 61.6185 67.1998 61.6673 67.1783C63.6617 66.2976 65.6003 65.0258 67.1133 63.452C67.266 63.299 67.4193 63.1471 67.5762 62.9983C68.0204 62.5722 68.3939 62.1097 68.7646 61.6205C68.7942 61.5819 68.8238 61.5434 68.8543 61.5037C70.7635 59.0127 71.9087 56.0238 72.4326 52.9523C72.4452 52.8784 72.4579 52.8045 72.4709 52.7284C72.6678 51.5138 72.7284 50.3136 72.7264 49.084C72.7263 48.9699 72.7264 48.9699 72.7263 48.8535C72.7241 47.5565 72.6488 46.2916 72.4485 45.0104C72.4415 44.965 72.4344 44.9195 72.4272 44.8727C72.3359 44.2857 72.2374 43.7002 72.1309 43.1157C72.3106 43.2684 72.372 43.4089 72.445 43.6306C72.4784 43.7318 72.4784 43.7318 72.5124 43.835C72.5359 43.9089 72.5593 43.9829 72.5835 44.0591C72.6082 44.1368 72.633 44.2145 72.6585 44.2945C73.2728 46.2518 73.7333 48.2703 73.9093 50.3155C73.9164 50.3889 73.9234 50.4622 73.9307 50.5378C74.3174 55.3338 73.0981 60.222 69.9714 63.9573C69.931 64.0061 69.931 64.0061 69.8897 64.0558C69.2584 64.8145 68.5791 65.5424 67.8119 66.1677C67.7653 66.2065 67.7653 66.2065 67.7177 66.246C63.5377 69.7076 58.1132 71.2808 52.759 71.6623C52.6965 71.6668 52.6965 71.6668 52.6329 71.6714C51.7833 71.7305 50.9348 71.7382 50.0834 71.7373C50.0136 71.7373 49.9438 71.7373 49.8718 71.7372C48.712 71.7355 47.5631 71.7049 46.4075 71.5992C46.3644 71.5953 46.3214 71.5915 46.277 71.5875C42.9298 71.288 39.6001 70.6212 36.3915 69.6283C36.3166 69.6053 36.2417 69.5822 36.1645 69.5584C36.0986 69.5378 36.0327 69.5172 35.9649 69.496C35.7983 69.4436 35.7983 69.4436 35.61 69.4519C35.4852 69.5767 35.4852 69.5767 35.3599 69.744C35.3095 69.8075 35.2591 69.871 35.2071 69.9364C35.1799 69.9706 35.1527 70.0049 35.1247 70.0401C34.9752 70.2245 34.8176 70.4021 34.6613 70.5808C33.4361 71.9935 32.3494 73.5542 31.4351 75.182C31.3834 75.274 31.3314 75.3657 31.2789 75.4572C30.3863 77.0155 29.8424 78.7178 29.4832 80.4668C29.4322 80.7114 29.3772 80.9551 29.3221 81.1989C28.6713 80.6094 28.4918 79.4009 28.4386 78.5543C28.4357 78.4566 28.4357 78.4566 28.4329 78.3569C28.4316 78.3121 28.4303 78.2673 28.4289 78.2212C28.3391 74.5728 29.5014 70.9033 31.037 67.6203C30.9931 67.6135 30.9492 67.6067 30.904 67.5997C30.6895 67.5503 30.5065 67.4717 30.3058 67.3815C30.2656 67.3635 30.2254 67.3455 30.184 67.327C30.0513 67.2673 29.9189 67.207 29.7865 67.1467C29.7407 67.1259 29.6948 67.105 29.6476 67.0836C28.1255 66.3914 26.6234 65.6564 25.1777 64.8164C24.9937 64.7097 24.809 64.6043 24.6242 64.499C21.5473 62.7396 18.6131 60.6924 15.9098 58.4046C15.6951 58.2232 15.4775 58.0459 15.2576 57.8706C14.9391 57.6132 14.6387 57.3392 14.3403 57.0593C14.1513 56.8822 13.9602 56.7086 13.7642 56.5391C13.0442 55.9162 12.3643 55.2486 11.6888 54.5786C11.6302 54.5205 11.5715 54.4625 11.511 54.4027C11.2271 54.1197 10.9521 53.8335 10.6903 53.5301C10.5058 53.3195 10.3104 53.1191 10.1168 52.9168C9.79908 52.5822 9.49463 52.2431 9.2063 51.8828C9.06456 51.7094 8.91804 51.5417 8.76945 51.3741C8.32806 50.8757 7.91811 50.359 7.51792 49.8275C7.40645 49.6799 7.29407 49.533 7.18152 49.3862C6.33728 48.2815 5.52932 47.1542 4.81839 45.9595C4.74464 45.836 4.66982 45.7132 4.59454 45.5907C4.22382 44.9858 3.87452 44.37 3.53514 43.7473C3.50574 43.6936 3.47635 43.6399 3.44607 43.5846C0.670997 38.4892 -0.899303 32.5733 0.549949 24.6741C1.30028 22.2096 2.5404 20.0317 4.17028 18.0427C4.19735 18.0092 4.22442 17.9757 4.25231 17.9412C4.6817 17.4121 5.15336 16.9259 5.63509 16.4441C5.69288 16.386 5.75066 16.328 5.8102 16.2682C6.19686 15.8855 6.60162 15.5382 7.02844 15.2007C7.1074 15.136 7.18624 15.0711 7.26488 15.006C7.85704 14.5221 8.47798 14.0939 9.12442 13.6849C9.164 13.6598 9.20357 13.6347 9.24435 13.6088C13.2135 11.1108 17.9896 9.99111 22.653 9.89557C22.7176 9.89418 22.7821 9.8928 22.8485 9.89137C28.1119 9.79656 33.2851 10.8794 38.8691 12.7771C38.9441 12.8032 39.019 12.8293 39.0963 12.8562C39.1639 12.8804 39.2314 12.9046 39.3011 12.9295C39.3893 12.961 39.3893 12.961 39.4793 12.9931C39.6114 13.0534 39.6114 13.0534 39.675 13.1797C39.232 13.1057 38.7965 13.0133 38.3602 12.9075C36.0163 12.3408 33.6263 11.9536 31.2235 11.7429C31.1809 11.7391 31.1382 11.7354 31.0943 11.7315C30.8001 11.7062 30.5058 11.684 30.2113 11.6639C30.1669 11.6609 30.1225 11.6578 30.0768 11.6547C29.164 11.594 28.2518 11.5881 27.3372 11.5889C27.2615 11.589 27.1858 11.589 27.1077 11.5891C25.9353 11.5907 24.7734 11.6123 23.6058 11.7271C23.5437 11.7331 23.5437 11.7331 23.4804 11.7392C18.1261 12.2577 12.5957 13.7851 7.09195 18.1059C7.04111 18.1493 6.99027 18.1928 6.93788 18.2376C6.13052 18.9419 5.3586 19.6921 4.74191 20.569C4.71568 20.6059 4.68945 20.6428 4.66243 20.6808C2.24089 24.1074 1.88878 28.4372 2.57076 32.4709C3.05687 35.2039 3.94209 37.8265 5.123 40.3369C5.15377 40.4029 5.18453 40.4689 5.21623 40.537C6.24977 42.7499 7.48405 44.8314 8.87036 46.8419C8.90396 46.8908 8.93756 46.9396 8.97218 46.99C10.1536 48.7003 11.4664 50.3436 12.87 51.8791C12.9823 52.0026 13.0921 52.1275 13.2013 52.2536C13.8418 52.9826 14.5238 53.6739 15.213 54.357C15.3424 54.4853 15.4714 54.614 15.6004 54.7426C15.6844 54.8261 15.7685 54.9096 15.8525 54.993C15.8902 55.0306 15.9278 55.0682 15.9666 55.1069C16.2012 55.3389 16.4436 55.5588 16.6942 55.7735C16.8706 55.9259 17.0402 56.0854 17.2106 56.2443C17.5151 56.526 17.8275 56.793 18.1519 57.052C18.3605 57.221 18.5635 57.3955 18.7667 57.5706C19.1626 57.9099 19.5676 58.2349 19.9816 58.5519C20.0753 58.6237 20.1687 58.6956 20.2621 58.7677C20.9859 59.326 21.7189 59.8633 22.4807 60.3692C22.6394 60.4746 22.7976 60.5806 22.9558 60.6867C24.3251 61.6049 25.7166 62.468 27.1626 63.2626C27.2234 63.2961 27.2842 63.3296 27.3469 63.3642C28.6283 64.069 29.9322 64.7312 31.2632 65.3388C31.3505 65.3789 31.3505 65.3789 31.4395 65.4198C31.5194 65.4557 31.5194 65.4557 31.6009 65.4923C31.6471 65.5131 31.6934 65.5339 31.741 65.5554C31.8709 65.6101 31.8709 65.6101 32.0532 65.5993C32.0845 65.5402 32.1158 65.4812 32.1481 65.4203C33.1933 63.4482 33.1933 63.4482 33.5299 62.852C34.2521 61.5728 34.9372 60.2734 35.61 58.9679C35.6415 58.9071 35.6731 58.8462 35.7055 58.7835C36.7085 56.8426 37.5681 54.8221 38.1506 52.7155C38.1651 52.6639 38.1797 52.6123 38.1946 52.5592C38.398 51.8247 38.5255 51.0799 38.6389 50.3274C38.6487 50.2634 38.6487 50.2634 38.6587 50.1981C38.8639 48.8416 38.9367 47.4864 38.9326 46.1157C38.9326 46.0448 38.9326 45.974 38.9326 45.901C38.9315 44.7885 38.8816 43.6941 38.7397 42.5903C38.7229 42.4271 38.721 42.2691 38.7222 42.1052C38.5986 42.1075 38.5986 42.1075 38.4725 42.1099C37.695 42.124 36.9175 42.1344 36.14 42.1412C35.7402 42.1449 35.3405 42.1498 34.9409 42.1576C34.555 42.1652 34.1692 42.1693 33.7832 42.1711C33.6361 42.1724 33.489 42.1749 33.342 42.1787C32.1894 42.2069 32.1894 42.2069 31.8548 41.9571C31.7225 41.779 31.6339 41.6128 31.5451 41.4105C31.4749 41.3037 31.4031 41.198 31.3287 41.094C31.2631 40.9957 31.1976 40.8972 31.1322 40.7987C31.0982 40.7476 31.0641 40.6965 31.029 40.6439C30.9468 40.5206 30.8648 40.3972 30.7829 40.2737C30.5808 40.659 30.4167 41.0495 30.2619 41.4557C30.2368 41.5208 30.2118 41.5859 30.1859 41.653C30.1322 41.7928 30.0785 41.9326 30.025 42.0724C29.8824 42.4446 29.739 42.8165 29.5957 43.1885C29.5669 43.2633 29.5382 43.3381 29.5085 43.4152C29.2349 44.1259 28.9571 44.8349 28.6778 45.5434C28.4305 46.1707 28.1856 46.7987 27.9439 47.4281C27.8938 47.5581 27.8437 47.6881 27.7937 47.8182C27.7206 48.0078 27.6478 48.1975 27.5754 48.3874C27.5091 48.5612 27.4423 48.7348 27.3754 48.9083C27.3557 48.9606 27.336 49.0128 27.3157 49.0666C27.177 49.4242 27.177 49.4242 27.0355 49.4945C26.6349 46.857 26.2435 44.2182 25.857 41.5786C25.7844 41.0829 25.7117 40.5872 25.639 40.0915C25.4904 39.0786 25.342 38.0657 25.1936 37.0527C25.074 37.2312 25.0209 37.3613 24.9577 37.5636C24.9368 37.6302 24.9158 37.6968 24.8942 37.7654C24.8602 37.8752 24.8602 37.8752 24.8254 37.9873C24.8012 38.0646 24.7769 38.1419 24.752 38.2216C24.6991 38.3905 24.6464 38.5593 24.5938 38.7282C24.5103 38.9967 24.4263 39.2651 24.3423 39.5335C24.062 40.4292 23.7834 41.3254 23.5052 42.2218C23.4408 42.4292 23.3764 42.6367 23.3119 42.8441C23.2962 42.8948 23.2804 42.9454 23.2642 42.9976C23.2327 43.099 23.2012 43.2004 23.1697 43.3018C23.0772 43.5996 22.9849 43.8974 22.8929 44.1954C22.8352 44.3819 22.7773 44.5683 22.7194 44.7547C22.6926 44.8412 22.6659 44.9277 22.6392 45.0142C22.5136 45.4221 22.3899 45.8233 22.2084 46.2104C22.0315 46.0002 21.9373 45.7846 21.8355 45.5307C21.8181 45.4876 21.8007 45.4445 21.7827 45.4C21.7446 45.3057 21.7067 45.2112 21.6689 45.1167C21.5866 44.9109 21.5035 44.7055 21.4205 44.5001C21.3753 44.3884 21.3302 44.2766 21.2852 44.1649C21.0178 43.5022 20.7462 42.8411 20.4746 42.1801C20.3918 41.9784 20.309 41.7767 20.2262 41.575C20.1742 41.4484 20.1223 41.3218 20.0703 41.1951C20.0335 41.1054 20.0335 41.1054 19.9959 41.0139C19.8422 40.6398 19.6862 40.2669 19.5258 39.8956C19.4773 39.7685 19.4773 39.7685 19.4773 39.6421C19.4372 39.6427 19.3972 39.6433 19.3559 39.6439C18.8636 39.6479 18.3757 39.6228 17.8845 39.591C17.7969 39.5854 17.7093 39.58 17.6217 39.5745C17.3857 39.5597 17.1497 39.5446 16.9138 39.5294C16.6655 39.5136 16.4171 39.4979 16.1688 39.4822C15.7518 39.4559 15.3349 39.4294 14.9179 39.4028C14.385 39.3687 13.852 39.3349 13.319 39.3013C12.8581 39.2721 12.3972 39.2429 11.9363 39.2136C11.838 39.2074 11.7398 39.2011 11.6415 39.1949C11.3609 39.1771 11.0804 39.1593 10.7998 39.1414C10.6755 39.1334 10.5512 39.1255 10.4269 39.1177C9.92891 39.0858 9.43134 39.0498 8.93388 39.0106C9.16087 38.8601 9.29283 38.8562 9.56348 38.8331C9.63088 38.8271 9.63088 38.8271 9.69964 38.8211C9.85055 38.8078 10.0015 38.7954 10.1525 38.783C10.2606 38.7737 10.3687 38.7643 10.4767 38.7549C10.7707 38.7295 11.0646 38.7048 11.3586 38.6802C11.6663 38.6543 11.9739 38.6279 12.2816 38.6015C12.7985 38.5573 13.3156 38.5135 13.8326 38.47C14.4299 38.4197 15.0271 38.3689 15.6242 38.3178C16.2602 38.2634 16.8962 38.2093 17.5323 38.1553C17.7153 38.1397 17.8983 38.1241 18.0814 38.1085C18.3696 38.0839 18.6578 38.0596 18.9461 38.0354C19.0517 38.0265 19.1573 38.0176 19.2628 38.0085C19.4074 37.9962 19.552 37.9841 19.6966 37.972C19.7774 37.9652 19.8582 37.9584 19.9414 37.9514C20.1901 37.9361 20.4349 37.9345 20.6841 37.9369C20.8446 38.3269 21.0051 38.7169 21.1656 39.1068C21.2201 39.2395 21.2747 39.3721 21.3293 39.5047C21.4078 39.6955 21.4863 39.8863 21.5649 40.0771C21.5892 40.1362 21.6136 40.1954 21.6386 40.2563C21.6615 40.3119 21.6844 40.3676 21.708 40.4249C21.728 40.4735 21.748 40.5222 21.7687 40.5723C21.8312 40.7252 21.8929 40.8783 21.9544 41.0316C22.1287 40.5873 22.2724 40.1353 22.4151 39.6801C22.4416 39.5961 22.4681 39.512 22.4946 39.4279C22.5658 39.2018 22.6369 38.9756 22.7079 38.7494C22.7676 38.559 22.8275 38.3687 22.8874 38.1784C23.2818 36.9247 23.6746 35.6705 24.0662 34.416C24.0892 34.3426 24.1121 34.2692 24.1357 34.1936C24.389 33.3827 24.6409 32.5714 24.8902 31.7592C24.9776 31.4744 25.0654 31.1898 25.1531 30.9051C25.2241 30.6743 25.2945 30.4433 25.3649 30.2123C25.4077 30.0733 25.4505 29.9344 25.4933 29.7954C25.5127 29.7314 25.532 29.6674 25.5519 29.6015C25.5699 29.5436 25.5878 29.4857 25.6063 29.4261C25.6218 29.3756 25.6372 29.3251 25.6532 29.273C25.7017 29.1582 25.7017 29.1582 25.8288 29.0951C26.1436 31.1679 26.4542 33.2414 26.7597 35.3157C26.7672 35.3671 26.7748 35.4186 26.7826 35.4716C26.9149 36.3695 27.0469 37.2675 27.1789 38.1655C27.2656 38.7549 27.3523 39.3442 27.4391 39.9336C27.4832 40.233 27.5272 40.5324 27.5711 40.8318C27.5981 41.0157 27.6252 41.1996 27.6523 41.3835C27.6708 41.5088 27.6891 41.6341 27.7075 41.7595C27.724 41.8715 27.724 41.8715 27.7409 41.9857C27.7504 42.0504 27.7599 42.115 27.7697 42.1816C27.796 42.3467 27.827 42.51 27.8612 42.6736C27.8738 42.6413 27.8864 42.609 27.8994 42.5757C28.2024 41.7972 28.5058 41.0189 28.8097 40.2408C28.9517 39.877 29.0937 39.5132 29.2353 39.1493C29.3672 38.8105 29.4995 38.4718 29.632 38.1332C29.682 38.0051 29.732 37.8768 29.7819 37.7486C29.8513 37.5699 29.9212 37.3913 29.9912 37.2128C30.022 37.1332 30.022 37.1332 30.0534 37.052C30.1968 36.6882 30.1968 36.6882 30.3383 36.5475C30.6816 36.9703 30.9876 37.4116 31.2871 37.8659C31.5691 38.2929 31.8516 38.717 32.164 39.1228C32.2714 39.2755 32.3566 39.4151 32.4421 39.5789C32.7045 40.068 32.7045 40.068 33.1364 40.3945C33.5047 40.4829 33.8793 40.4623 34.2551 40.4494C34.3752 40.4489 34.4952 40.4489 34.6152 40.4493C34.9292 40.4491 35.2427 40.443 35.5565 40.4355C35.8776 40.429 36.1986 40.4282 36.5197 40.4269C37.1482 40.4235 37.7763 40.4138 38.4047 40.4C38.365 40.2518 38.3253 40.1035 38.2856 39.9553C38.2746 39.914 38.2635 39.8727 38.2521 39.8301C37.2972 36.2657 35.8471 32.701 33.26 29.9792C33.1815 29.8901 33.1034 29.8006 33.0258 29.7108C32.8888 29.5536 32.7474 29.4055 32.597 29.2608C32.4343 29.0951 32.4343 29.0951 32.4343 28.9687C32.3823 28.9483 32.3823 28.9483 32.3293 28.9275C32.1292 28.8133 31.9847 28.6557 31.8269 28.4911C31.5328 28.1916 31.2287 27.9195 30.8985 27.659C30.7407 27.5331 30.5874 27.4032 30.4348 27.2711C27.1748 24.4638 23.0995 23.0533 18.8422 22.7163C18.7694 22.7103 18.6967 22.7043 18.6217 22.6981C17.8146 22.6392 17.0073 22.6408 16.1984 22.6413C16.1236 22.6412 16.0488 22.6412 15.9718 22.6411C14.6386 22.6412 13.3123 22.6872 11.9826 22.7794C11.9826 22.7378 11.9826 22.6961 11.9826 22.6531C16.9035 19.9058 22.6536 18.2674 28.2423 19.8111C28.3262 19.834 28.3262 19.834 28.4118 19.8573C30.6392 20.4831 32.5818 21.7436 34.2762 23.2847C34.3407 23.3422 34.4052 23.3997 34.4697 23.4571C34.7931 23.7463 35.1024 24.0378 35.3833 24.3689C35.6234 24.6476 35.8902 24.897 36.1697 25.136C36.3737 25.3105 36.5642 25.4943 36.7533 25.6846C37.0187 25.951 37.2925 26.199 37.579 26.4425C37.649 26.5034 37.719 26.5645 37.7889 26.6255C41.0731 29.4891 44.8777 31.9342 49.3927 31.7476C50.6031 31.6553 51.7668 31.2552 52.8225 30.674C52.8888 30.639 52.9551 30.6039 53.0234 30.5679C54.0179 30.0226 54.9702 29.2179 55.6806 28.3372C55.728 28.2791 55.7753 28.2211 55.824 28.1613C59.5854 23.4711 60.1116 16.9107 59.594 6.69252C59.4155 5.1416 59.1688 3.60204 58.8737 2.06907C58.8645 2.02141 58.8553 1.97375 58.8459 1.92464C58.8213 1.79702 58.7963 1.66945 58.7713 1.5419C58.7274 1.29521 58.695 1.04986 58.6658 0.801075Z" fill="#0068F7"/>
<path d="M22.8485 9.89137C28.1119 9.79655 33.2851 10.8794 38.8691 12.7771C38.9441 12.8032 39.019 12.8293 39.0963 12.8562C39.1977 12.8925 39.1977 12.8925 39.3011 12.9295C39.3599 12.9505 39.4187 12.9715 39.4793 12.9931C39.6114 13.0534 39.6114 13.0534 39.675 13.1797C39.232 13.1057 38.7965 13.0133 38.3602 12.9075C36.0163 12.3408 33.6263 11.9536 31.2235 11.7429C31.1809 11.7391 31.1382 11.7354 31.0943 11.7315C30.8001 11.7062 30.5058 11.684 30.2113 11.6639C30.1447 11.6593 30.1447 11.6593 30.0768 11.6547C29.164 11.594 28.2518 11.5881 27.3372 11.5889C27.2615 11.589 27.1858 11.589 27.1077 11.5891C25.9353 11.5907 24.7734 11.6123 23.6058 11.7271C23.5644 11.7311 23.523 11.7351 23.4804 11.7392C18.1261 12.2577 12.5957 13.7851 7.09195 18.1059C7.04111 18.1493 6.99027 18.1928 6.93788 18.2376C6.13052 18.9419 5.3586 19.692 4.74191 20.569C4.71568 20.6059 4.68945 20.6428 4.66243 20.6808C2.24089 24.1074 1.88878 28.4372 2.57076 32.4709C3.05687 35.2039 3.94209 37.8265 5.123 40.3369C5.15377 40.4029 5.18453 40.4689 5.21623 40.537C6.24977 42.7499 7.48405 44.8314 8.87036 46.8419C8.90396 46.8908 8.93756 46.9396 8.97218 46.99C10.1536 48.7003 11.4664 50.3436 12.87 51.8791C12.9823 52.0026 13.0921 52.1275 13.2013 52.2536C13.8418 52.9826 14.5238 53.6739 15.213 54.357C15.3424 54.4853 15.4714 54.614 15.6004 54.7426C15.6844 54.8261 15.7685 54.9096 15.8525 54.993C15.8902 55.0306 15.9278 55.0682 15.9666 55.1069C16.2012 55.3389 16.4436 55.5588 16.6942 55.7735C16.8706 55.9259 17.0402 56.0854 17.2106 56.2443C17.5151 56.526 17.8275 56.793 18.1519 57.052C18.3605 57.221 18.5635 57.3955 18.7667 57.5706C19.1626 57.9099 19.5676 58.2349 19.9816 58.5519C20.0753 58.6237 20.1687 58.6956 20.2621 58.7677C20.9859 59.326 21.7189 59.8633 22.4807 60.3691C22.6394 60.4746 22.7976 60.5806 22.9558 60.6867C24.325 61.6049 25.7166 62.468 27.1626 63.2626C27.2234 63.2961 27.2842 63.3296 27.3469 63.3642C28.8801 64.2075 30.441 64.9802 32.0532 65.6625C31.9433 66.0461 31.7579 66.3901 31.5768 66.744C31.5452 66.8065 31.5135 66.8689 31.4808 66.9333C31.422 67.0491 31.3631 67.1649 31.3041 67.2807C31.2357 67.4147 31.1679 67.549 31.1005 67.6835C30.517 67.4691 29.9522 67.2289 29.3896 66.9651C29.3491 66.9462 29.3086 66.9273 29.2669 66.9078C27.8791 66.2594 26.5078 65.5858 25.1818 64.8185C24.996 64.7111 24.8097 64.6048 24.6232 64.4985C21.5467 62.7388 18.6129 60.6922 15.9098 58.4046C15.6951 58.2232 15.4775 58.0459 15.2576 57.8706C14.9391 57.6132 14.6387 57.3392 14.3403 57.0593C14.1513 56.8822 13.9602 56.7086 13.7642 56.5391C13.0442 55.9161 12.3643 55.2486 11.6888 54.5786C11.6302 54.5205 11.5715 54.4625 11.511 54.4027C11.2271 54.1197 10.9521 53.8335 10.6903 53.5301C10.5058 53.3195 10.3104 53.1191 10.1168 52.9168C9.79908 52.5822 9.49463 52.2431 9.2063 51.8828C9.06456 51.7094 8.91804 51.5417 8.76945 51.3741C8.32806 50.8757 7.91811 50.359 7.51792 49.8275C7.40645 49.6799 7.29407 49.533 7.18152 49.3862C6.33728 48.2815 5.52932 47.1542 4.81839 45.9595C4.74464 45.836 4.66982 45.7132 4.59454 45.5907C4.22382 44.9858 3.87452 44.37 3.53514 43.7473C3.50574 43.6936 3.47635 43.6399 3.44607 43.5846C0.670997 38.4892 -0.899303 32.5733 0.549949 24.6741C1.30028 22.2096 2.5404 20.0317 4.17028 18.0427C4.21089 17.9924 4.21089 17.9924 4.25231 17.9412C4.6817 17.4121 5.15336 16.9259 5.63509 16.4441C5.69288 16.386 5.75066 16.328 5.8102 16.2682C6.19686 15.8855 6.60162 15.5381 7.02844 15.2007C7.1074 15.136 7.18624 15.0711 7.26488 15.006C7.85704 14.5221 8.47798 14.0939 9.12442 13.6849C9.164 13.6598 9.20357 13.6347 9.24435 13.6088C13.2876 11.0642 18.1073 9.99307 22.8485 9.89137Z" fill="#9CBE4D"/>
<path d="M51.5931 13.8022C52.9754 15.0645 53.6504 16.7518 53.7931 18.5884C53.8409 20.2906 53.2434 21.9411 52.1239 23.2215C52.0936 23.2599 52.0633 23.2984 52.0321 23.338C51.0272 24.5941 49.3487 25.3115 47.789 25.5149C45.9926 25.7139 44.216 25.2196 42.7832 24.1215C41.3971 22.9703 40.4902 21.4829 40.2466 19.6848C40.1063 17.6718 40.5516 15.8699 41.898 14.3165C43.0905 12.9619 44.7769 12.1719 46.5791 12.0493C48.4482 11.9668 50.1906 12.5727 51.5931 13.8022Z" fill="#0068F7"/>
<path d="M72.131 43.1157C72.3107 43.2684 72.372 43.4089 72.4451 43.6306C72.4673 43.6981 72.4896 43.7655 72.5125 43.835C72.5477 43.9459 72.5477 43.9459 72.5835 44.0591C72.6206 44.1756 72.6206 44.1756 72.6585 44.2945C73.2728 46.2518 73.7334 48.2703 73.9094 50.3155C73.9199 50.4256 73.9199 50.4256 73.9307 50.5378C74.3174 55.3338 73.0982 60.222 69.9715 63.9573C69.9445 63.9898 69.9175 64.0223 69.8897 64.0558C69.2585 64.8145 68.5791 65.5424 67.812 66.1677C67.7809 66.1936 67.7498 66.2194 67.7178 66.246C63.5377 69.7076 58.1133 71.2808 52.759 71.6623C52.6966 71.6668 52.6966 71.6668 52.6329 71.6714C51.7834 71.7305 50.9348 71.7382 50.0835 71.7373C50.0136 71.7373 49.9438 71.7373 49.8719 71.7372C48.7121 71.7355 47.5631 71.7049 46.4076 71.5992C46.3645 71.5953 46.3214 71.5915 46.2771 71.5875C42.9359 71.2886 38.7166 70.9016 35.6736 69.3887C35.7791 69.1268 35.9695 68.9424 36.1619 68.7414C36.2309 68.6682 36.2999 68.595 36.3688 68.5218C36.4021 68.4864 36.4355 68.4511 36.4698 68.4147C36.6235 68.25 36.7712 68.0804 36.9183 67.91C36.9477 67.8769 36.9771 67.8439 37.0074 67.8098C37.0344 67.7724 37.0614 67.7351 37.0893 67.6966C37.1979 67.6203 37.1979 67.6203 37.3719 67.6393C37.4842 67.671 37.4842 67.671 37.5989 67.7032C37.6644 67.7209 37.6644 67.7209 37.7312 67.7389C37.8925 67.7826 38.0533 67.8278 38.2142 67.873C43.284 69.2729 48.5425 69.9795 61.524 67.2414C61.5713 67.2206 61.6186 67.1998 61.6673 67.1783C63.6617 66.2976 65.6003 65.0258 67.1133 63.452C67.266 63.299 67.4194 63.1472 67.5763 62.9983C68.0204 62.5722 68.3939 62.1097 68.7647 61.6205C68.7943 61.582 68.8239 61.5434 68.8544 61.5037C70.7635 59.0127 71.9087 56.0238 72.4327 52.9523C72.4453 52.8784 72.4579 52.8045 72.4709 52.7284C72.6679 51.5138 72.7284 50.3136 72.7264 49.084C72.7264 48.9699 72.7264 48.9699 72.7264 48.8535C72.7241 47.5565 72.6489 46.2916 72.4485 45.0104C72.438 44.9423 72.438 44.9423 72.4272 44.8727C72.3359 44.2857 72.2375 43.7002 72.131 43.1157Z" fill="#9CBE4D"/>
</svg>
